/* XPM */
static char * bottom_inactive_xpm[] = {
"24 4 3 1",
" 	c None",
".	c #D2D2D2",
"+	c #939393",
"........................",
"........................",
"........................",
"++++++++++++++++++++++++"};
