/* XPM */
static char * bottom_right_inactive_xpm[] = {
"4 4 3 1",
" 	c None",
".	c #D2D2D2",
"+	c #939393",
"...+",
"...+",
"...+",
"++++"};
