/* XPM */
static char * close_prelight_xpm[] = {
"20 24 228 2",
"  	c None",
". 	c #939393",
"+ 	c #FFFFFF",
"@ 	c #E8E8E8",
"# 	c #E8E8E7",
"$ 	c #E8E7E8",
"% 	c #E7E7E7",
"& 	c #E6E6E6",
"* 	c #E6E7E6",
"= 	c #E5E5E5",
"- 	c #E6E5E5",
"; 	c #978485",
"> 	c #6D4244",
", 	c #561A1C",
"' 	c #591F21",
") 	c #E5E6E5",
"! 	c #E4E4E4",
"~ 	c #E4E5E4",
"{ 	c #A8A0A0",
"] 	c #541618",
"^ 	c #5D181A",
"/ 	c #722E2F",
"( 	c #86494A",
"_ 	c #854849",
": 	c #722D2E",
"< 	c #5C1719",
"[ 	c #A89F9F",
"} 	c #E3E3E4",
"| 	c #E3E3E3",
"1 	c #530C0F",
"2 	c #701719",
"3 	c #9E3638",
"4 	c #CD8082",
"5 	c #F3DBDC",
"6 	c #F2D9D9",
"7 	c #CC7C7E",
"8 	c #9E3436",
"9 	c #A79F9F",
"0 	c #E4E3E3",
"a 	c #E3E4E3",
"b 	c #E2E2E3",
"c 	c #E2E2E2",
"d 	c #5B1B1D",
"e 	c #791618",
"f 	c #AD2325",
"g 	c #B23031",
"h 	c #DF6668",
"i 	c #F1B5B6",
"j 	c #F0B3B3",
"k 	c #DE6364",
"l 	c #B12E30",
"m 	c #AD2224",
"n 	c #E3E3E2",
"o 	c #E2E1E2",
"p 	c #E1E1E2",
"q 	c #9A8788",
"r 	c #6A1417",
"s 	c #B52123",
"t 	c #B52526",
"u 	c #8B2828",
"v 	c #B23131",
"w 	c #EF6566",
"x 	c #EF6465",
"y 	c #E1E1E1",
"z 	c #E1E2E2",
"A 	c #E0E0E0",
"B 	c #E1E1E0",
"C 	c #8A4E4F",
"D 	c #991E21",
"E 	c #D22325",
"F 	c #E52426",
"G 	c #B52728",
"H 	c #8D2828",
"I 	c #B82C2D",
"J 	c #E52526",
"K 	c #E0E0E1",
"L 	c #DFE0E0",
"M 	c #E0DFE0",
"N 	c #8B2A2D",
"O 	c #B12325",
"P 	c #E32B2C",
"Q 	c #F22E2F",
"R 	c #F83233",
"S 	c #BA2F2F",
"T 	c #8E2A2A",
"U 	c #BA3030",
"V 	c #F83434",
"W 	c #F23030",
"X 	c #E32C2D",
"Y 	c #B12426",
"Z 	c #8C2A2D",
"` 	c #DFDFDF",
" .	c #DFE0DF",
"..	c #DEDFDF",
"+.	c #DFDEDE",
"@.	c #8E2F31",
"#.	c #B82B2C",
"$.	c #EF3839",
"%.	c #F93F40",
"&.	c #FC4848",
"*.	c #BB3C3C",
"=.	c #8E2D2D",
"-.	c #BB3D3D",
";.	c #FC4A4A",
">.	c #F94242",
",.	c #EF3A3B",
"'.	c #B92D2E",
").	c #8F3032",
"!.	c #DEDEDF",
"~.	c #DFDEDF",
"{.	c #DDDEDE",
"].	c #DEDDDD",
"^.	c #9D5C5E",
"/.	c #AD3031",
"(.	c #F44849",
"_.	c #FB5354",
":.	c #BB4343",
"<.	c #8E2F2F",
"[.	c #BC5050",
"}.	c #BC5151",
"|.	c #8E3030",
"1.	c #BB4444",
"2.	c #FB5757",
"3.	c #F44B4B",
"4.	c #AE3334",
"5.	c #9E5E5F",
"6.	c #DEDDDE",
"7.	c #DDDDDD",
"8.	c #DCDCDD",
"9.	c #DDDCDC",
"0.	c #B59C9D",
"a.	c #913132",
"b.	c #EF5858",
"c.	c #D15152",
"d.	c #BC5656",
"e.	c #FE9898",
"f.	c #FE9999",
"g.	c #BC5757",
"h.	c #D15454",
"i.	c #EF5B5C",
"j.	c #933334",
"k.	c #DDDCDD",
"l.	c #DCDBDB",
"m.	c #DCDBDC",
"n.	c #DCDCDB",
"o.	c #DBDCDB",
"p.	c #93494A",
"q.	c #B95656",
"r.	c #F37575",
"s.	c #D16868",
"t.	c #FD9C9C",
"u.	c #FEA7A7",
"v.	c #FEA8A8",
"w.	c #FD9E9E",
"x.	c #D26A6A",
"y.	c #F47878",
"z.	c #BA595A",
"A.	c #954B4D",
"B.	c #DCDCDC",
"C.	c #DBDCDC",
"D.	c #DBDBDA",
"E.	c #DADBDB",
"F.	c #DBDBDB",
"G.	c #DBDADB",
"H.	c #DADADA",
"I.	c #9A5656",
"J.	c #C77778",
"K.	c #F79595",
"L.	c #FDA4A4",
"M.	c #FDADAD",
"N.	c #FDAEAE",
"O.	c #FDA6A6",
"P.	c #F89798",
"Q.	c #C87B7B",
"R.	c #9C595A",
"S.	c #DBDADA",
"T.	c #DADAD9",
"U.	c #D9DAD9",
"V.	c #DAD9D9",
"W.	c #A2696A",
"X.	c #BB8686",
"Y.	c #D69999",
"Z.	c #E4A4A4",
"`.	c #E4A5A5",
" +	c #D69B9B",
".+	c #BC8888",
"++	c #A46C6D",
"@+	c #D9D9DA",
"#+	c #DAD9DA",
"$+	c #D8D9D9",
"%+	c #D9D9D9",
"&+	c #D9D8D9",
"*+	c #D9D9D8",
"=+	c #D8D8D9",
"-+	c #D5D5D6",
";+	c #BCA8A8",
">+	c #AF8687",
",+	c #B18081",
"'+	c #B38384",
")+	c #AF8788",
"!+	c #BDA8A8",
"~+	c #D5D6D6",
"{+	c #D7D8D8",
"]+	c #D7D7D8",
"^+	c #D8D7D7",
"/+	c #D8D8D8",
"(+	c #D8D8D7",
"_+	c #D8D7D8",
":+	c #D6D6D5",
"<+	c #D4D4D4",
"[+	c #D7D8D7",
"}+	c #D6D7D6",
"|+	c #D6D7D7",
"1+	c #D7D7D7",
"2+	c #D7D6D7",
"3+	c #D7D6D6",
"4+	c #D7D7D6",
"5+	c #D6D6D6",
"6+	c #D6D5D6",
"7+	c #D6D5D5",
"8+	c #D5D6D5",
"9+	c #D5D4D5",
"0+	c #D5D5D5",
"a+	c #D5D5D4",
"b+	c #D4D5D5",
"c+	c #D5D4D4",
"d+	c #D4D3D4",
"e+	c #D3D4D4",
". . . . . . . . . . . . . . . . . . . . ",
"+ + + + + + + + + + + + + + + + + + + + ",
"@ @ @ @ @ @ @ @ # @ $ @ @ @ @ @ @ @ @ @ ",
"% % % % % % % % % % % % % % % % % % % % ",
"& & & & & & & & & & & & & & & & & & & * ",
"= = = - = = = ; > , ' > ; = = ) = = = = ",
"! ~ ~ ! ! { ] ^ / ( _ : < ] [ ~ ! ~ ~ ! ",
"} } | | { 1 2 3 4 5 6 7 8 2 1 9 | 0 ! a ",
"b c c c d e f g h i j k l m e d c n c c ",
"o p p q r s t u v w x g u t s r q y z y ",
"A A B C D E F G H I I H G J E D C B A K ",
"L M L N O P Q R S T T U V W X Y Z ` `  .",
"....+.@.#.$.%.&.*.=.=.-.;.>.,.'.).!.~.+.",
"{.].].^./.(._.:.<.[.}.|.1.2.3.4.5.6.7.7.",
"7.8.9.0.a.b.c.|.d.e.f.g.|.h.i.j.0.k.9.8.",
"l.m.n.o.p.q.r.s.t.u.v.w.x.y.z.A.B.C.m.B.",
"D.E.F.G.H.I.J.K.L.M.N.O.P.Q.R.S.S.S.E.F.",
"T.U.V.H.H.U.W.X.Y.Z.`. +.+++@+#+V.T.H.#+",
"$+%+&+*+=+*+-+;+>+,+'+)+!+~+*+%+*+*+&+$+",
"{+]+^+/+(+/+/+_+:+<+<+:+_+/+^+/+]+{+[+/+",
"}+|+1+2+3+2+2+|+4+1+1+4+5+4+1+1+|+1+1+4+",
":+6+5+5+6+5+~+5+5+6+5+5+6+5+6+7+8+6+8+5+",
"9+0+a+a+a+0+b+0+a+0+c+9+b+9+c+0+9+b+0+0+",
"<+<+d+<+<+d+<+<+<+<+<+<+e+d+<+<+d+<+<+e+"};
