/* XPM */
static char * close_pressed_xpm[] = {
"20 24 227 2",
"  	c None",
". 	c #939393",
"+ 	c #FFFFFF",
"@ 	c #E8E8E8",
"# 	c #E7E7E7",
"$ 	c #E7E7E8",
"% 	c #E8E7E7",
"& 	c #E7E6E6",
"* 	c #E6E6E6",
"= 	c #E6E7E6",
"- 	c #E5E5E5",
"; 	c #E5E5E6",
"> 	c #E5E6E5",
", 	c #968485",
"' 	c #6D4243",
") 	c #561A1C",
"! 	c #591F21",
"~ 	c #E6E5E6",
"{ 	c #E6E5E5",
"] 	c #E4E4E4",
"^ 	c #E5E4E5",
"/ 	c #E4E4E5",
"( 	c #E4E5E4",
"_ 	c #A89F9F",
": 	c #541618",
"< 	c #5D181A",
"[ 	c #722E2F",
"} 	c #86494A",
"| 	c #854849",
"1 	c #722D2E",
"2 	c #5C1719",
"3 	c #A79E9F",
"4 	c #E5E4E4",
"5 	c #E5E5E4",
"6 	c #E3E3E3",
"7 	c #E4E3E3",
"8 	c #E3E3E4",
"9 	c #530C0F",
"0 	c #701719",
"a 	c #9E3638",
"b 	c #CD8082",
"c 	c #F3DBDC",
"d 	c #F2D9D9",
"e 	c #CC7C7E",
"f 	c #9E3436",
"g 	c #A79F9F",
"h 	c #E3E4E3",
"i 	c #E2E2E2",
"j 	c #E2E3E3",
"k 	c #E2E2E3",
"l 	c #5B1B1D",
"m 	c #791618",
"n 	c #AD2325",
"o 	c #B23031",
"p 	c #DF6668",
"q 	c #F1B5B6",
"r 	c #F0B3B3",
"s 	c #DE6364",
"t 	c #B12E30",
"u 	c #AD2224",
"v 	c #E2E3E2",
"w 	c #E1E1E1",
"x 	c #E1E2E1",
"y 	c #998687",
"z 	c #6A1417",
"A 	c #B52123",
"B 	c #B52526",
"C 	c #8B2828",
"D 	c #B23131",
"E 	c #EF6566",
"F 	c #EF6465",
"G 	c #E2E1E2",
"H 	c #E0E0E0",
"I 	c #E0E0E1",
"J 	c #8A4D4F",
"K 	c #991E21",
"L 	c #D22325",
"M 	c #E52426",
"N 	c #B52728",
"O 	c #8D2828",
"P 	c #B82C2D",
"Q 	c #E52526",
"R 	c #E1E1E0",
"S 	c #E1E0E0",
"T 	c #DFDFDF",
"U 	c #8B2A2D",
"V 	c #B12325",
"W 	c #E32B2C",
"X 	c #F22E2F",
"Y 	c #F83233",
"Z 	c #BA2F2F",
"` 	c #8E2A2A",
" .	c #BA3030",
"..	c #F83434",
"+.	c #F23030",
"@.	c #E32C2D",
"#.	c #B12426",
"$.	c #8C2A2D",
"%.	c #E0DFDF",
"&.	c #E0E0DF",
"*.	c #DEDFDF",
"=.	c #8E2F31",
"-.	c #B82B2C",
";.	c #EF3839",
">.	c #F93F40",
",.	c #FC4848",
"'.	c #BB3C3C",
").	c #8E2D2D",
"!.	c #BB3D3D",
"~.	c #FC4A4A",
"{.	c #F94242",
"].	c #EF3A3B",
"^.	c #B92D2E",
"/.	c #8F3032",
"(.	c #DEDEDE",
"_.	c #DEDEDF",
":.	c #DEDEDD",
"<.	c #DEDDDE",
"[.	c #DDDDDE",
"}.	c #9D5C5E",
"|.	c #AD3031",
"1.	c #F44849",
"2.	c #FB5354",
"3.	c #BB4343",
"4.	c #8E2F2F",
"5.	c #BC5050",
"6.	c #BC5151",
"7.	c #8E3030",
"8.	c #BB4444",
"9.	c #FB5757",
"0.	c #F44B4B",
"a.	c #AE3334",
"b.	c #9E5E5F",
"c.	c #DEDDDD",
"d.	c #DDDEDE",
"e.	c #DDDEDD",
"f.	c #DDDCDC",
"g.	c #DDDCDD",
"h.	c #DCDCDC",
"i.	c #B59C9D",
"j.	c #913132",
"k.	c #EF5858",
"l.	c #D15152",
"m.	c #BC5656",
"n.	c #FE9898",
"o.	c #FE9999",
"p.	c #BC5757",
"q.	c #D15454",
"r.	c #EF5B5C",
"s.	c #933334",
"t.	c #DCDCDD",
"u.	c #DCDDDC",
"v.	c #DBDCDC",
"w.	c #DBDBDB",
"x.	c #DBDCDB",
"y.	c #93494A",
"z.	c #B95656",
"A.	c #F37575",
"B.	c #D16868",
"C.	c #FD9C9C",
"D.	c #FEA7A7",
"E.	c #FEA8A8",
"F.	c #FD9E9E",
"G.	c #D26A6A",
"H.	c #F47878",
"I.	c #BA595A",
"J.	c #954B4D",
"K.	c #DBDBDC",
"L.	c #DBDBDA",
"M.	c #DBDADA",
"N.	c #9A5656",
"O.	c #C77778",
"P.	c #F79595",
"Q.	c #FDA4A4",
"R.	c #FDADAD",
"S.	c #FDAEAE",
"T.	c #FDA6A6",
"U.	c #F89798",
"V.	c #C87B7B",
"W.	c #9C595A",
"X.	c #DADBDB",
"Y.	c #DADADB",
"Z.	c #DADBDA",
"`.	c #DADADA",
" +	c #DADAD9",
".+	c #DAD9DA",
"++	c #A2696A",
"@+	c #BB8686",
"#+	c #D69999",
"$+	c #E4A4A4",
"%+	c #E4A5A5",
"&+	c #D69B9B",
"*+	c #BC8888",
"=+	c #A46C6D",
"-+	c #D9DADA",
";+	c #D9D8D9",
">+	c #D9D8D8",
",+	c #D9D9D9",
"'+	c #D4D5D5",
")+	c #BDABAB",
"!+	c #AF8687",
"~+	c #B18081",
"{+	c #B38384",
"]+	c #AF8788",
"^+	c #BEABAB",
"/+	c #D5D5D5",
"(+	c #D8D9D9",
"_+	c #D8D9D8",
":+	c #D8D8D8",
"<+	c #D7D8D8",
"[+	c #D7D7D7",
"}+	c #D3D3D4",
"|+	c #D4D4D4",
"1+	c #D7D7D8",
"2+	c #D8D8D7",
"3+	c #D7D7D6",
"4+	c #D6D6D7",
"5+	c #D7D6D7",
"6+	c #D6D6D6",
"7+	c #D5D6D6",
"8+	c #D6D6D5",
"9+	c #D6D5D6",
"0+	c #D5D4D5",
"a+	c #D5D5D4",
"b+	c #D3D4D4",
"c+	c #D4D4D3",
"d+	c #D4D3D4",
". . . . . . . . . . . . . . . . . . . . ",
"+ + + + + + + + + + + + + + + + + + + + ",
"@ @ @ @ @ @ @ @ @ @ @ @ @ @ @ @ @ @ @ @ ",
"# # # # # $ # % # # # # # $ # # # % # # ",
"& * * * * * * * * * * * * * * = * & * * ",
"- - ; - > - > , ' ) ! ' , - ~ - { { { * ",
"] ] ^ / ( _ : < [ } | 1 2 : 3 ] ( 4 ] 5 ",
"6 7 8 7 3 9 0 a b c d e f 0 9 g h 8 6 6 ",
"i j k k l m n o p q r s t u m l 6 v v i ",
"w w x y z A B C D E F o C B A z y x G G ",
"H H I J K L M N O P P O N Q L K J R S H ",
"H T H U V W X Y Z ` `  ...+.@.#.$.%.&.T ",
"*.*.*.=.-.;.>.,.'.).).!.~.{.].^./.(.(._.",
":.<.[.}.|.1.2.3.4.5.6.7.8.9.0.a.b.c.d.e.",
"f.g.h.i.j.k.l.7.m.n.o.p.7.q.r.s.i.t.g.u.",
"v.v.w.x.y.z.A.B.C.D.E.F.G.H.I.J.v.x.K.h.",
"w.L.M.w.M.N.O.P.Q.R.S.T.U.V.W.w.L.X.Y.Z.",
"`. +`.`..+`.++@+#+$+%+&+*+=+ + +`.-+.+`.",
";+;+>+,+,+;+'+)+!+~+{+]+^+/+;+(+;+(+_+(+",
":+:+:+<+:+<+:+[+/+}+|+/+:+:+:+1+:+<+2+<+",
"[+3+4+5+3+4+[+4+[+[+5+5+3+[+[+[+3+[+5+[+",
"6+7+8+6+9+6+8+6+6+9+6+8+6+6+9+6+8+8+6+6+",
"/+/+/+/+0+0+/+/+/+/+/+0+'+'+/+a+a+/+/+/+",
"b+c+|+d+b+b+|+d+|+b+b+|+b+|+|+|+|+|+|+b+"};
