/* XPM */
static char * close_active_xpm[] = {
"20 24 234 2",
"  	c None",
". 	c #939393",
"+ 	c #FFFFFF",
"@ 	c #E8E8E8",
"# 	c #E7E7E7",
"$ 	c #E8E7E7",
"% 	c #E7E7E8",
"& 	c #E7E6E7",
"* 	c #E6E6E6",
"= 	c #E6E6E7",
"- 	c #E6E7E6",
"; 	c #E5E5E5",
"> 	c #E5E6E5",
", 	c #E6E5E5",
"' 	c #968385",
") 	c #6D4243",
"! 	c #561A1C",
"~ 	c #591F21",
"{ 	c #E6E6E5",
"] 	c #E4E4E5",
"^ 	c #E5E4E4",
"/ 	c #E4E4E4",
"( 	c #E4E5E4",
"_ 	c #A79E9F",
": 	c #541618",
"< 	c #5D181A",
"[ 	c #722E2F",
"} 	c #86494A",
"| 	c #854849",
"1 	c #722D2E",
"2 	c #5C1719",
"3 	c #E4E5E5",
"4 	c #E3E3E3",
"5 	c #E4E3E4",
"6 	c #530C0F",
"7 	c #701719",
"8 	c #9E3638",
"9 	c #CD8082",
"0 	c #F3DBDC",
"a 	c #F2D9D9",
"b 	c #CC7C7E",
"c 	c #9E3436",
"d 	c #A79F9F",
"e 	c #E4E3E3",
"f 	c #E3E2E2",
"g 	c #E2E2E2",
"h 	c #5B1B1D",
"i 	c #791618",
"j 	c #AF2225",
"k 	c #CC3336",
"l 	c #DF6668",
"m 	c #F1B5B6",
"n 	c #F0B3B3",
"o 	c #DE6364",
"p 	c #CB3234",
"q 	c #AF2124",
"r 	c #E2E2E3",
"s 	c #E3E3E2",
"t 	c #E1E1E1",
"u 	c #E2E1E2",
"v 	c #998687",
"w 	c #6A1417",
"x 	c #B52123",
"y 	c #D12224",
"z 	c #DF2628",
"A 	c #E83A3C",
"B 	c #EF6666",
"C 	c #EF6465",
"D 	c #E8393A",
"E 	c #DF2627",
"F 	c #E1E2E1",
"G 	c #E2E1E1",
"H 	c #E1E1E2",
"I 	c #E0E1E0",
"J 	c #E1E0E0",
"K 	c #8A4D4F",
"L 	c #991E21",
"M 	c #D22325",
"N 	c #E52426",
"O 	c #EF2627",
"P 	c #F4292A",
"Q 	c #F63132",
"R 	c #E52526",
"S 	c #E0E0E0",
"T 	c #DFDFDF",
"U 	c #8B2A2D",
"V 	c #B12325",
"W 	c #E32B2C",
"X 	c #F22E2F",
"Y 	c #F83233",
"Z 	c #FB3737",
"` 	c #FB3A3B",
" .	c #FB3B3B",
"..	c #FB3838",
"+.	c #F83434",
"@.	c #F23030",
"#.	c #E32C2D",
"$.	c #B12426",
"%.	c #8C2A2D",
"&.	c #DFE0DF",
"*.	c #E0E0DF",
"=.	c #DFDFDE",
"-.	c #8E2F31",
";.	c #B82B2C",
">.	c #EF3839",
",.	c #F93F40",
"'.	c #FC4848",
").	c #FD5353",
"!.	c #FD5C5C",
"~.	c #FD5D5D",
"{.	c #FD5555",
"].	c #FC4B4B",
"^.	c #F94242",
"/.	c #EF3A3B",
"(.	c #B92D2E",
"_.	c #8F3032",
":.	c #DEDEDE",
"<.	c #DEDFDE",
"[.	c #DDDEDE",
"}.	c #DDDEDD",
"|.	c #9D5C5E",
"1.	c #AD3031",
"2.	c #F44849",
"3.	c #FB5354",
"4.	c #FD6262",
"5.	c #FD7272",
"6.	c #FD7F7F",
"7.	c #FE8080",
"8.	c #FD7575",
"9.	c #FD6565",
"0.	c #FB5757",
"a.	c #F44B4B",
"b.	c #AE3334",
"c.	c #9E5E5F",
"d.	c #DEDEDD",
"e.	c #DDDCDC",
"f.	c #B59C9D",
"g.	c #913132",
"h.	c #EF5858",
"i.	c #FC6868",
"j.	c #FD7979",
"k.	c #FD8B8B",
"l.	c #FE9999",
"m.	c #FD8D8E",
"n.	c #FD7C7C",
"o.	c #FC6B6B",
"p.	c #EF5B5C",
"q.	c #933334",
"r.	c #DDDCDD",
"s.	c #DBDCDB",
"t.	c #DBDBDB",
"u.	c #DCDBDC",
"v.	c #DCDBDB",
"w.	c #93494A",
"x.	c #B95656",
"y.	c #FA7979",
"z.	c #FD9C9C",
"A.	c #FEA7A7",
"B.	c #FEA8A8",
"C.	c #FD9E9E",
"D.	c #FD8E8E",
"E.	c #FA7C7C",
"F.	c #BA595A",
"G.	c #954B4D",
"H.	c #DCDCDB",
"I.	c #DBDBDC",
"J.	c #DCDCDC",
"K.	c #DADADB",
"L.	c #DBDADA",
"M.	c #DADADA",
"N.	c #DADBDB",
"O.	c #9A5656",
"P.	c #C77778",
"Q.	c #F79595",
"R.	c #FDA4A4",
"S.	c #FDADAD",
"T.	c #FDAEAE",
"U.	c #FDA6A6",
"V.	c #F89798",
"W.	c #C87B7B",
"X.	c #9C595A",
"Y.	c #DBDADB",
"Z.	c #D9D9D9",
"`.	c #DADAD9",
" +	c #DAD9D9",
".+	c #A2696A",
"++	c #BB8686",
"@+	c #D69999",
"#+	c #E4A4A4",
"$+	c #E4A5A5",
"%+	c #D69B9B",
"&+	c #BC8888",
"*+	c #A46C6D",
"=+	c #D9D9DA",
"-+	c #DAD9DA",
";+	c #D9DAD9",
">+	c #D8D9D9",
",+	c #D8D8D8",
"'+	c #D8D9D8",
")+	c #D9D8D9",
"!+	c #D3D3D4",
"~+	c #C1B1B1",
"{+	c #AF8687",
"]+	c #B18081",
"^+	c #B38384",
"/+	c #AF8788",
"(+	c #C2B1B1",
"_+	c #D8D8D9",
":+	c #D9D8D8",
"<+	c #D7D8D8",
"[+	c #D7D7D8",
"}+	c #D8D8D7",
"|+	c #D8D7D8",
"1+	c #D3D4D4",
"2+	c #D3D3D3",
"3+	c #D4D3D3",
"4+	c #D7D8D7",
"5+	c #D7D7D7",
"6+	c #D6D7D7",
"7+	c #D7D6D7",
"8+	c #D7D7D6",
"9+	c #D6D6D7",
"0+	c #D6D7D6",
"a+	c #D5D6D6",
"b+	c #D6D6D5",
"c+	c #D6D6D6",
"d+	c #D6D5D6",
"e+	c #D5D4D5",
"f+	c #D5D5D5",
"g+	c #D5D5D4",
"h+	c #D4D5D5",
"i+	c #D4D4D4",
"j+	c #D4D4D3",
"k+	c #D4D3D4",
". . . . . . . . . . . . . . . . . . . . ",
"+ + + + + + + + + + + + + + + + + + + + ",
"@ @ @ @ @ @ @ @ @ @ @ @ @ @ @ @ @ @ @ @ ",
"# # $ # # % # # # # # # # # # # # # # # ",
"& * = * * * * * * * - * * = * * - * * = ",
"; > ; > ; , ; ' ) ! ~ ) ' ; ; ; , { , ; ",
"] ^ / ( / _ : < [ } | 1 2 : _ / ^ / ] 3 ",
"4 5 4 4 _ 6 7 8 9 0 a b c 7 6 d e 4 5 4 ",
"f f g f h i j k l m n o p q i h r g g s ",
"t t u v w x y z A B C D E y x w v F G H ",
"t I J K L M N O P Q Q P O R M L K t J I ",
"S S T U V W X Y Z `  ...+.@.#.$.%.&.*.T ",
"T =.=.-.;.>.,.'.).!.~.{.].^./.(._.:.<.:.",
"[.}.[.|.1.2.3.4.5.6.7.8.9.0.a.b.c.d.d.[.",
"e.e.e.f.g.h.i.j.k.l.l.m.n.o.p.q.f.e.r.e.",
"s.t.u.v.w.x.y.k.z.A.B.C.D.E.F.G.H.I.I.J.",
"t.K.L.M.N.O.P.Q.R.S.T.U.V.W.X.Y.t.N.N.N.",
"M.Z.`.M.M. +.+++@+#+$+%+&+*+`.M.=+`.-+;+",
"Z.>+,+>+'+)+!+~+{+]+^+/+(+!+_+'+Z.>+'+:+",
"<+[+}+,+}+|+,+}+1+2+2+3+[+<+|+}+4+}+|+|+",
"5+6+7+6+8+9+6+7+5+5+6+8+0+6+5+8+7+5+9+9+",
"a+b+a+c+a+c+c+c+c+d+c+d+c+c+b+c+d+b+c+a+",
"e+f+f+f+f+g+h+f+f+e+g+h+f+f+g+f+g+f+f+f+",
"1+i+i+i+j+i+j+1+k+i+i+i+i+i+1+i+i+j+i+i+"};
