/* XPM */
static char * hide_pressed_xpm[] = {
"20 24 228 2",
"  	c None",
". 	c #939393",
"+ 	c #FFFFFF",
"@ 	c #E8E8E8",
"# 	c #E7E7E7",
"$ 	c #E7E8E7",
"% 	c #E7E7E8",
"& 	c #E8E7E7",
"* 	c #E6E6E7",
"= 	c #E6E6E6",
"- 	c #E7E7E6",
"; 	c #E6E7E6",
"> 	c #E7E6E6",
", 	c #E5E6E5",
"' 	c #E6E5E5",
") 	c #E5E5E5",
"! 	c #E5E5E6",
"~ 	c #988583",
"{ 	c #70433F",
"] 	c #571915",
"^ 	c #5A1E1A",
"/ 	c #E4E4E4",
"( 	c #E4E5E4",
"_ 	c #E4E4E5",
": 	c #A9A09F",
"< 	c #611E16",
"[ 	c #6A2217",
"} 	c #7F3D2E",
"| 	c #90594D",
"1 	c #905A4E",
"2 	c #803E30",
"3 	c #6A2318",
"4 	c #601D15",
"5 	c #E5E4E4",
"6 	c #E5E4E5",
"7 	c #E3E3E3",
"8 	c #E4E3E3",
"9 	c #AAA19F",
"0 	c #64170A",
"a 	c #893015",
"b 	c #BB5F36",
"c 	c #DC9F7C",
"d 	c #F4E4D3",
"e 	c #F4E6D6",
"f 	c #DDA280",
"g 	c #BB6038",
"h 	c #893115",
"i 	c #E3E4E3",
"j 	c #E3E4E4",
"k 	c #E3E3E4",
"l 	c #E2E3E3",
"m 	c #E2E3E2",
"n 	c #E3E2E3",
"o 	c #E2E2E2",
"p 	c #6E2618",
"q 	c #983915",
"r 	c #CF652A",
"s 	c #DD7D3F",
"t 	c #E6A26F",
"u 	c #F3D6BB",
"v 	c #F3D8BD",
"w 	c #E7A472",
"x 	c #DE7E40",
"y 	c #CF662A",
"z 	c #E3E2E2",
"A 	c #E2E1E1",
"B 	c #E2E2E1",
"C 	c #E1E1E2",
"D 	c #A08A86",
"E 	c #842F12",
"F 	c #D8712F",
"G 	c #E08037",
"H 	c #E58D41",
"I 	c #EA9F57",
"J 	c #EFB97F",
"K 	c #EFBA81",
"L 	c #EAA058",
"M 	c #E58D42",
"N 	c #E08038",
"O 	c #E1E1E1",
"P 	c #E2E1E2",
"Q 	c #E0E0E1",
"R 	c #E0E0E0",
"S 	c #9D5E46",
"T 	c #B75A23",
"U 	c #E2873C",
"V 	c #E49344",
"W 	c #E79D49",
"X 	c #EAA650",
"Y 	c #ECAC59",
"Z 	c #ECAD5A",
"` 	c #EAA651",
" .	c #E79D4A",
"..	c #E0E1E0",
"+.	c #DFDFDF",
"@.	c #DFE0DF",
"#.	c #E0DFE0",
"$.	c #A95123",
"%.	c #CD7633",
"&.	c #EA9C49",
"*.	c #98552B",
"=.	c #803F21",
"-.	c #814022",
";.	c #814122",
">.	c #E0DFDF",
",.	c #DFDEDF",
"'.	c #A65727",
").	c #CF833B",
"!.	c #F1AE55",
"~.	c #995B2F",
"{.	c #814223",
"].	c #814324",
"^.	c #814424",
"/.	c #9A5B2F",
"(.	c #D0833B",
"_.	c #DFDEDE",
":.	c #DEDEDE",
"<.	c #DEDEDD",
"[.	c #DDDDDE",
"}.	c #A87350",
"|.	c #C3813A",
"1.	c #F5BC5E",
"2.	c #D8A453",
"3.	c #D0A052",
"4.	c #D1A554",
"5.	c #D1A956",
"6.	c #D0A956",
"7.	c #D1A555",
"8.	c #D0A053",
"9.	c #D8A454",
"0.	c #C3813B",
"a.	c #A97350",
"b.	c #DEDDDD",
"c.	c #DCDDDD",
"d.	c #DDDDDC",
"e.	c #DCDCDD",
"f.	c #B7A294",
"g.	c #A56C2E",
"h.	c #F5C363",
"i.	c #FCD36D",
"j.	c #FDDB71",
"k.	c #FDE173",
"l.	c #FEE675",
"m.	c #FEE774",
"n.	c #FDE273",
"o.	c #FDDC71",
"p.	c #FCD46D",
"q.	c #F4C464",
"r.	c #A56C2F",
"s.	c #B7A394",
"t.	c #DCDCDC",
"u.	c #DDDDDD",
"v.	c #DCDBDC",
"w.	c #DBDBDC",
"x.	c #9B6834",
"y.	c #C59B4B",
"z.	c #FCD871",
"A.	c #FDE074",
"B.	c #FFE676",
"C.	c #FEE775",
"D.	c #FFE875",
"E.	c #FDE174",
"F.	c #FCD971",
"G.	c #C69C4C",
"H.	c #9C6934",
"I.	c #DCDCDB",
"J.	c #DCDBDB",
"K.	c #DADADB",
"L.	c #DADBDB",
"M.	c #DADBDA",
"N.	c #9A7132",
"O.	c #CDAD56",
"P.	c #FBE074",
"Q.	c #FEE676",
"R.	c #FEE776",
"S.	c #CEAF57",
"T.	c #9C7333",
"U.	c #DBDADA",
"V.	c #DBDBDA",
"W.	c #DBDADB",
"X.	c #DADADA",
"Y.	c #DADAD9",
"Z.	c #D9DADA",
"`.	c #DAD9DA",
" +	c #D9D9DA",
".+	c #9E7C42",
"++	c #BC9F4D",
"@+	c #DEC463",
"#+	c #EED56C",
"$+	c #EED66D",
"%+	c #DFC563",
"&+	c #BFA24E",
"*+	c #A07F43",
"=+	c #D9DAD9",
"-+	c #D8D9D9",
";+	c #D9D8D9",
">+	c #D9D9D9",
",+	c #D9D9D8",
"'+	c #D6D5D6",
")+	c #B6AA9C",
"!+	c #AA8F64",
"~+	c #B08E49",
"{+	c #B1914D",
"]+	c #AA9065",
"^+	c #B7AA9C",
"/+	c #D6D6D6",
"(+	c #D8D9D8",
"_+	c #D7D8D8",
":+	c #D8D8D8",
"<+	c #D8D8D7",
"[+	c #D8D7D7",
"}+	c #D4D4D4",
"|+	c #D6D6D5",
"1+	c #D8D7D8",
"2+	c #D7D6D7",
"3+	c #D7D7D6",
"4+	c #D7D7D7",
"5+	c #D7D6D6",
"6+	c #D6D7D7",
"7+	c #D5D6D6",
"8+	c #D5D6D5",
"9+	c #D5D5D5",
"0+	c #D5D4D5",
"a+	c #D5D5D4",
"b+	c #D4D5D4",
"c+	c #D4D5D5",
"d+	c #D3D4D4",
"e+	c #D4D3D4",
". . . . . . . . . . . . . . . . . . . . ",
"+ + + + + + + + + + + + + + + + + + + + ",
"@ @ @ @ @ @ @ @ @ @ @ @ @ @ @ @ @ @ @ @ ",
"# # $ # # # % # # # # # # # & # # # # # ",
"* = - = = = = ; = > * = > > = = * * ; * ",
", ' ' ) ) ) ! ~ { ] ^ { ~ ) ) ) ) , ' , ",
"/ ( ( ( _ : < [ } | 1 2 3 4 : / _ 5 / 6 ",
"7 7 8 7 9 0 a b c d e f g h 0 9 i j 7 k ",
"l m n o p q r s t u v w x y q p o z o l ",
"A B C D E F G H I J K L M N F E D O P o ",
"Q R Q S T U V W X Y Z `  .V U T S R O ..",
"+.@.#.$.%.&.*.=.-.;.;.-.=.*.&.%.$.>.R #.",
",.,.,.'.).!.~.{.].^.^.^.{./.!.(.'._.,.:.",
"<.[.<.}.|.1.2.3.4.5.6.7.8.9.1.0.a.[.:.b.",
"c.d.e.f.g.h.i.j.k.l.m.n.o.p.q.r.s.t.e.u.",
"t.v.w.w.x.y.z.A.B.C.D.B.E.F.G.H.w.I.J.t.",
"K.L.K.M.M.N.O.P.Q.C.R.Q.P.S.T.U.V.M.L.W.",
"X.X.Y.Z.`. +.+++@+#+$+%+&+*+X.`.=+X.X.X.",
"-+;+>+,+>+,+'+)+!+~+{+]+^+/+(+(+;+>+>+>+",
"_+:+:+:+<+[+:+:+'+}+}+|+_+:+1+<+:+_+[+1+",
"2+2+3+4+5+4+6+4+4+5+3+4+5+6+6+4+4+3+6+6+",
"/+/+/+/+'+/+7+7+/+/+/+/+/+/+8+/+'+/+/+/+",
"9+9+0+9+a+9+9+9+a+a+9+9+9+0+9+b+9+0+c+9+",
"}+}+}+}+}+}+}+}+}+d+}+}+}+e+}+}+d+}+}+}+"};
