/* XPM */
static char * hide_active_xpm[] = {
"20 24 229 2",
"  	c None",
". 	c #939393",
"+ 	c #FFFFFF",
"@ 	c #E8E8E8",
"# 	c #E7E7E7",
"$ 	c #E7E7E8",
"% 	c #E7E8E7",
"& 	c #E6E6E6",
"* 	c #E6E6E7",
"= 	c #E5E5E5",
"- 	c #E5E6E5",
"; 	c #978482",
"> 	c #6F423F",
", 	c #571915",
"' 	c #5A1E1A",
") 	c #E6E5E5",
"! 	c #E6E6E5",
"~ 	c #E6E5E6",
"{ 	c #E5E5E6",
"] 	c #E4E4E4",
"^ 	c #E4E5E4",
"/ 	c #A89F9E",
"( 	c #601E16",
"_ 	c #6A2217",
": 	c #7F3D2E",
"< 	c #90594D",
"[ 	c #905A4E",
"} 	c #803E30",
"| 	c #6A2318",
"1 	c #601D15",
"2 	c #E4E4E5",
"3 	c #E4E5E5",
"4 	c #E3E4E3",
"5 	c #E3E3E4",
"6 	c #E3E3E3",
"7 	c #A99F9E",
"8 	c #64170A",
"9 	c #893015",
"0 	c #BB5F36",
"a 	c #DC9F7C",
"b 	c #F4E4D3",
"c 	c #F4E6D6",
"d 	c #DDA280",
"e 	c #BB6038",
"f 	c #893115",
"g 	c #E4E3E3",
"h 	c #E2E2E2",
"i 	c #E2E3E2",
"j 	c #E3E3E2",
"k 	c #6E2618",
"l 	c #983915",
"m 	c #CF652A",
"n 	c #DD7D3F",
"o 	c #E6A26F",
"p 	c #F3D6BB",
"q 	c #F3D8BD",
"r 	c #E7A472",
"s 	c #DE7E40",
"t 	c #CF652B",
"u 	c #E2E3E3",
"v 	c #E1E1E1",
"w 	c #E2E1E1",
"x 	c #9F8A85",
"y 	c #842F12",
"z 	c #D8712F",
"A 	c #E08037",
"B 	c #E58D41",
"C 	c #EA9F57",
"D 	c #EFB97F",
"E 	c #EFBA81",
"F 	c #EAA058",
"G 	c #E58D42",
"H 	c #E08038",
"I 	c #E2E1E2",
"J 	c #E0E1E0",
"K 	c #E1E1E0",
"L 	c #E0E0E1",
"M 	c #9C5E46",
"N 	c #B75A23",
"O 	c #E2873C",
"P 	c #E99745",
"Q 	c #EEA44C",
"R 	c #F2AD54",
"S 	c #F4B45D",
"T 	c #F4B45E",
"U 	c #EEA44D",
"V 	c #9D5E46",
"W 	c #E0E0E0",
"X 	c #E0DFE0",
"Y 	c #E0DFDF",
"Z 	c #A95123",
"` 	c #CD7633",
" .	c #EA9C49",
"..	c #F1AD53",
"+.	c #F6B85A",
"@.	c #F8C05E",
"#.	c #FAC361",
"$.	c #F9C360",
"%.	c #F9BF5E",
"&.	c #DFDFDF",
"*.	c #DFDEDE",
"=.	c #DEDFDE",
"-.	c #DFDFDE",
";.	c #A65727",
">.	c #CF833B",
",.	c #F1AE55",
"'.	c #F7BE5E",
").	c #FAC864",
"!.	c #FCCF68",
"~.	c #FCD46A",
"{.	c #FCD068",
"].	c #FAC964",
"^.	c #D0833B",
"/.	c #DEDEDF",
"(.	c #DDDEDD",
"_.	c #DEDEDE",
":.	c #DEDDDE",
"<.	c #A87350",
"[.	c #C3813A",
"}.	c #F5BC5E",
"|.	c #FACA67",
"1.	c #FCD36C",
"2.	c #FDDB6F",
"3.	c #FDE071",
"4.	c #FDD46C",
"5.	c #FACB67",
"6.	c #C3813B",
"7.	c #A97350",
"8.	c #DEDEDD",
"9.	c #DDDEDE",
"0.	c #DEDDDD",
"a.	c #DCDDDC",
"b.	c #DDDDDC",
"c.	c #DDDDDD",
"d.	c #B7A294",
"e.	c #A56C2E",
"f.	c #F5C363",
"g.	c #FCD36D",
"h.	c #FDDB71",
"i.	c #FDE173",
"j.	c #FEE675",
"k.	c #FEE774",
"l.	c #FDE273",
"m.	c #FDDC71",
"n.	c #FCD46D",
"o.	c #F4C464",
"p.	c #A56C2F",
"q.	c #B7A394",
"r.	c #DCDCDD",
"s.	c #DDDCDC",
"t.	c #DCDBDB",
"u.	c #DBDBDC",
"v.	c #DCDCDC",
"w.	c #9B6834",
"x.	c #C59B4B",
"y.	c #FCD871",
"z.	c #FDE074",
"A.	c #FFE676",
"B.	c #FEE775",
"C.	c #FFE875",
"D.	c #FDE174",
"E.	c #FCD971",
"F.	c #C69C4C",
"G.	c #9C6934",
"H.	c #DCDCDB",
"I.	c #DADBDB",
"J.	c #DBDADA",
"K.	c #DBDADB",
"L.	c #DBDBDB",
"M.	c #DBDBDA",
"N.	c #9A7132",
"O.	c #CDAD56",
"P.	c #FBE074",
"Q.	c #FEE676",
"R.	c #FEE776",
"S.	c #CEAF57",
"T.	c #9C7333",
"U.	c #DADADB",
"V.	c #DADAD9",
"W.	c #DADADA",
"X.	c #D9DADA",
"Y.	c #9E7C42",
"Z.	c #BC9F4D",
"`.	c #DEC463",
" +	c #EED56C",
".+	c #EED66D",
"++	c #DFC563",
"@+	c #BFA24E",
"#+	c #A07F43",
"$+	c #D9D9DA",
"%+	c #DAD9D9",
"&+	c #D8D9D9",
"*+	c #D9D9D8",
"=+	c #D9D9D9",
"-+	c #D4D3D3",
";+	c #B6AA9C",
">+	c #AA8F64",
",+	c #B08E49",
"'+	c #B1914D",
")+	c #AA9065",
"!+	c #B7AA9C",
"~+	c #D3D3D3",
"{+	c #D9D8D9",
"]+	c #D9D8D8",
"^+	c #D7D8D8",
"/+	c #D8D8D8",
"(+	c #D8D8D7",
"_+	c #D4D4D4",
":+	c #D7D8D7",
"<+	c #D8D7D8",
"[+	c #D8D7D7",
"}+	c #D7D6D6",
"|+	c #D7D7D7",
"1+	c #D7D7D6",
"2+	c #D6D7D7",
"3+	c #D6D6D7",
"4+	c #D7D6D7",
"5+	c #D6D6D5",
"6+	c #D6D6D6",
"7+	c #D5D6D5",
"8+	c #D5D6D6",
"9+	c #D6D5D6",
"0+	c #D5D5D5",
"a+	c #D5D4D5",
"b+	c #D5D4D4",
"c+	c #D4D5D5",
"d+	c #D5D5D4",
"e+	c #D3D4D4",
"f+	c #D4D4D3",
". . . . . . . . . . . . . . . . . . . . ",
"+ + + + + + + + + + + + + + + + + + + + ",
"@ @ @ @ @ @ @ @ @ @ @ @ @ @ @ @ @ @ @ @ ",
"# # # # # # # # # $ # % # # # # # # # # ",
"& & * & & & & & & & & & & & & * & & & & ",
"= - = = = = = ; > , ' > ; ) ! = ~ = { = ",
"] ] ] ] ^ / ( _ : < [ } | 1 / ] 2 3 ] 3 ",
"4 5 6 4 7 8 9 0 a b c d e f 8 7 6 g 5 4 ",
"h i j h k l m n o p q r s t l k h u h h ",
"v w v x y z A B C D E F G H z y x v I w ",
"J K L M N O P Q R S T R U P O N V W L W ",
"X Y Y Z `  ...+.@.#.$.%.+... .` Z &.Y Y ",
"*.=.-.;.>.,.'.).!.~.~.{.].'.,.^.;./.=.*.",
"(._.:.<.[.}.|.1.2.3.3.2.4.5.}.6.7.8.9.0.",
"a.b.c.d.e.f.g.h.i.j.k.l.m.n.o.p.q.c.r.s.",
"t.u.v.v.w.x.y.z.A.B.C.A.D.E.F.G.v.v.v.H.",
"I.J.K.L.M.N.O.P.Q.B.R.Q.P.S.T.L.U.J.K.K.",
"V.V.W.X.W.W.Y.Z.`. +.+++@+#+X.$+W.%+W.X.",
"&+*+=+*+*+*+-+;+>+,+'+)+!+~+{+]+]+&+=+=+",
"^+^+/+/+(+/+(+/+_+~+~+_+:+(+/+<+(+/+/+[+",
"}+|+|+1+2+1+|+|+2+|+|+1+3+|+1+|+1+4+2+1+",
"5+6+6+6+6+6+7+7+5+8+6+6+6+5+9+6+5+6+6+6+",
"0+a+a+a+0+0+0+b+c+0+0+0+d+0+0+0+0+0+0+0+",
"_+_+e+_+_+f+_+_+_+_+_+_+_+_+_+_+_+_+e+f+"};
