/* XPM */
static char * hide_prelight_xpm[] = {
"20 24 217 2",
"  	c None",
". 	c #939393",
"+ 	c #FFFFFF",
"@ 	c #E8E8E8",
"# 	c #E7E7E7",
"$ 	c #E6E6E6",
"% 	c #E6E7E6",
"& 	c #E6E6E7",
"* 	c #E7E6E6",
"= 	c #E5E5E5",
"- 	c #988583",
"; 	c #70433F",
"> 	c #571915",
", 	c #5A1E1A",
"' 	c #E6E5E5",
") 	c #E4E4E4",
"! 	c #E5E4E4",
"~ 	c #A9A09F",
"{ 	c #611E16",
"] 	c #6A2217",
"^ 	c #7F3D2E",
"/ 	c #90594D",
"( 	c #905A4E",
"_ 	c #803E30",
": 	c #6A2318",
"< 	c #601D15",
"[ 	c #E3E3E3",
"} 	c #E3E4E3",
"| 	c #E4E3E3",
"1 	c #AAA19F",
"2 	c #64170A",
"3 	c #893015",
"4 	c #BB5F36",
"5 	c #DC9F7C",
"6 	c #F4E4D3",
"7 	c #F4E6D6",
"8 	c #DDA280",
"9 	c #BB6038",
"0 	c #893115",
"a 	c #E2E2E3",
"b 	c #E2E3E2",
"c 	c #E3E2E2",
"d 	c #E3E3E2",
"e 	c #6E2618",
"f 	c #983915",
"g 	c #CF652A",
"h 	c #DD7D3F",
"i 	c #E6A26F",
"j 	c #F3D6BB",
"k 	c #F3D8BD",
"l 	c #E7A472",
"m 	c #DE7E40",
"n 	c #CF662A",
"o 	c #E2E2E2",
"p 	c #E2E1E2",
"q 	c #E1E1E1",
"r 	c #A08A86",
"s 	c #842F12",
"t 	c #D8712F",
"u 	c #E08037",
"v 	c #E58D41",
"w 	c #EA9F57",
"x 	c #EFB97F",
"y 	c #EFBA81",
"z 	c #EAA058",
"A 	c #E58D42",
"B 	c #E08038",
"C 	c #E1E2E1",
"D 	c #E1E0E0",
"E 	c #E0E0E1",
"F 	c #9C5E46",
"G 	c #B75A23",
"H 	c #E2873C",
"I 	c #E49344",
"J 	c #E79D49",
"K 	c #EAA650",
"L 	c #ECAC59",
"M 	c #ECAD5A",
"N 	c #EAA651",
"O 	c #E79D4A",
"P 	c #9D5E46",
"Q 	c #E0E0E0",
"R 	c #DFDFDF",
"S 	c #DFE0E0",
"T 	c #E0DFDF",
"U 	c #A95123",
"V 	c #CD7633",
"W 	c #EA9C49",
"X 	c #98552B",
"Y 	c #803F21",
"Z 	c #814022",
"` 	c #814122",
" .	c #E0E0DF",
"..	c #DEDFDE",
"+.	c #DFDEDE",
"@.	c #A65727",
"#.	c #CF833B",
"$.	c #F1AE55",
"%.	c #995B2F",
"&.	c #814223",
"*.	c #814324",
"=.	c #814424",
"-.	c #9A5B2F",
";.	c #D0833B",
">.	c #DEDFDF",
",.	c #DFDFDE",
"'.	c #DEDEDD",
").	c #DEDDDD",
"!.	c #DEDDDE",
"~.	c #A87350",
"{.	c #C3813A",
"].	c #F5BC5E",
"^.	c #D8A453",
"/.	c #D0A052",
"(.	c #D1A554",
"_.	c #D1A956",
":.	c #D0A956",
"<.	c #D1A555",
"[.	c #D0A053",
"}.	c #D8A454",
"|.	c #C3813B",
"1.	c #A97350",
"2.	c #DDDDDE",
"3.	c #DCDDDD",
"4.	c #DDDDDC",
"5.	c #B7A294",
"6.	c #A56C2E",
"7.	c #F5C363",
"8.	c #FCD36D",
"9.	c #FDDB71",
"0.	c #FDE173",
"a.	c #FEE675",
"b.	c #FEE774",
"c.	c #FDE273",
"d.	c #FDDC71",
"e.	c #FCD46D",
"f.	c #F4C464",
"g.	c #A56C2F",
"h.	c #B7A394",
"i.	c #DBDCDB",
"j.	c #DBDBDB",
"k.	c #DBDCDC",
"l.	c #9B6834",
"m.	c #C59B4B",
"n.	c #FCD871",
"o.	c #FDE074",
"p.	c #FFE676",
"q.	c #FEE775",
"r.	c #FFE875",
"s.	c #FDE174",
"t.	c #FCD971",
"u.	c #C69C4C",
"v.	c #9C6934",
"w.	c #DCDBDC",
"x.	c #DCDCDC",
"y.	c #DADBDB",
"z.	c #DADADA",
"A.	c #DADBDA",
"B.	c #9A7132",
"C.	c #CDAD56",
"D.	c #FBE074",
"E.	c #FEE676",
"F.	c #FEE776",
"G.	c #CEAF57",
"H.	c #9C7333",
"I.	c #DBDADA",
"J.	c #DBDADB",
"K.	c #DADAD9",
"L.	c #DAD9DA",
"M.	c #9E7C42",
"N.	c #BC9F4D",
"O.	c #DEC463",
"P.	c #EED56C",
"Q.	c #EED66D",
"R.	c #DFC563",
"S.	c #BFA24E",
"T.	c #A07F43",
"U.	c #DAD9D9",
"V.	c #D9DAD9",
"W.	c #D9D9D9",
"X.	c #D9D8D9",
"Y.	c #D9D8D8",
"Z.	c #D5D6D6",
"`.	c #B6AA9C",
" +	c #AA8F64",
".+	c #B08E49",
"++	c #B1914D",
"@+	c #AA9065",
"#+	c #B7AA9C",
"$+	c #D6D6D5",
"%+	c #D9D9D8",
"&+	c #D8D9D9",
"*+	c #D8D8D8",
"=+	c #D8D8D7",
"-+	c #D7D8D7",
";+	c #D7D8D8",
">+	c #D5D6D5",
",+	c #D4D4D4",
"'+	c #D6D6D6",
")+	c #D8D7D8",
"!+	c #D7D7D8",
"~+	c #D7D7D7",
"{+	c #D6D7D7",
"]+	c #D7D6D7",
"^+	c #D6D6D7",
"/+	c #D7D6D6",
"(+	c #D7D7D6",
"_+	c #D6D5D6",
":+	c #D6D5D5",
"<+	c #D5D5D5",
"[+	c #D4D5D5",
"}+	c #D5D4D5",
"|+	c #D5D5D4",
"1+	c #D3D4D4",
"2+	c #D4D4D3",
"3+	c #D4D3D4",
"4+	c #D4D3D3",
". . . . . . . . . . . . . . . . . . . . ",
"+ + + + + + + + + + + + + + + + + + + + ",
"@ @ @ @ @ @ @ @ @ @ @ @ @ @ @ @ @ @ @ @ ",
"# # # # # # # # # # # # # # # # # # # # ",
"$ % $ % $ $ $ $ $ $ $ $ $ $ % & $ $ * $ ",
"= = = = = = = - ; > , ; - = = ' = = = = ",
") ) ) ! ) ~ { ] ^ / ( _ : < ~ ) ) ) ! ) ",
"[ } | [ 1 2 3 4 5 6 7 8 9 0 2 1 [ [ [ } ",
"a b c d e f g h i j k l m n f e b b c o ",
"p q q r s t u v w x y z A B t s r C q q ",
"D D E F G H I J K L M N O I H G P Q E D ",
"R S T U V W X Y Z ` ` Z Y X W V U  .R T ",
"....+.@.#.$.%.&.*.=.=.=.&.-.$.;.@.>.,.+.",
"'.).!.~.{.].^./.(._.:.<.[.}.].|.1.!.'.2.",
"3.4.4.5.6.7.8.9.0.a.b.c.d.e.f.g.h.4.4.3.",
"i.j.k.k.l.m.n.o.p.q.r.p.s.t.u.v.i.i.w.x.",
"y.j.y.z.A.B.C.D.E.q.F.E.D.G.H.j.I.I.J.y.",
"K.K.L.L.L.K.M.N.O.P.Q.R.S.T.U.V.z.z.z.U.",
"W.X.Y.W.W.W.Z.`. +.+++@+#+$+Y.%+&+X.W.Y.",
"*+*+*+*+=+-+*+;+>+,+,+'+=+)+)+;+!+=+*+!+",
"~+{+~+~+]+^+~+/+~+~+~+~+^+{+'+(+~+~+{+~+",
"Z._+'+>+'+'+Z.'+Z.>+'+Z.'+'+'+'+'+_+'+:+",
"<+[+<+<+<+<+}+}+<+<+<+|+<+|+<+<+<+[+<+<+",
",+,+1+2+,+3+,+1+3+,+,+3+2+,+,+,+,+3+4+,+"};
