/* XPM */
static char * left_active_xpm[] = {
"4 24 2 1",
" 	c #939393",
".	c #D2D2D2",
" ...",
" ...",
" ...",
" ...",
" ...",
" ...",
" ...",
" ...",
" ...",
" ...",
" ...",
" ...",
" ...",
" ...",
" ...",
" ...",
" ...",
" ...",
" ...",
" ...",
" ...",
" ...",
" ...",
" ..."};
