/* XPM */
static char * maximize_active_xpm[] = {
"20 24 240 2",
"  	c None",
". 	c #939393",
"+ 	c #FFFFFF",
"@ 	c #E8E8E8",
"# 	c #E7E7E7",
"$ 	c #E7E8E7",
"% 	c #E7E8E8",
"& 	c #E8E7E7",
"* 	c #E6E7E6",
"= 	c #E6E6E6",
"- 	c #E6E6E7",
"; 	c #E7E6E6",
"> 	c #E5E5E6",
", 	c #E5E5E5",
"' 	c #E6E5E5",
") 	c #E5E6E5",
"! 	c #878E84",
"~ 	c #485942",
"{ 	c #213919",
"] 	c #243C1D",
"^ 	c #465840",
"/ 	c #E6E6E5",
"( 	c #E5E4E4",
"_ 	c #E4E4E4",
": 	c #A0A49F",
"< 	c #1D3615",
"[ 	c #203E15",
"} 	c #345929",
"| 	c #4A6E40",
"1 	c #476B3D",
"2 	c #305524",
"3 	c #1D3B12",
"4 	c #1D3514",
"5 	c #E4E4E5",
"6 	c #E4E5E5",
"7 	c #E4E4E3",
"8 	c #E4E3E4",
"9 	c #E3E3E4",
"0 	c #E3E4E3",
"a 	c #A1A4A0",
"b 	c #142E09",
"c 	c #254C14",
"d 	c #528337",
"e 	c #97B982",
"f 	c #DFEBD5",
"g 	c #D4E4C8",
"h 	c #87AE6E",
"i 	c #4B7E2E",
"j 	c #234B12",
"k 	c #132E09",
"l 	c #E4E3E3",
"m 	c #E3E3E3",
"n 	c #E2E2E2",
"o 	c #E3E2E2",
"p 	c #E3E3E2",
"q 	c #E3E2E3",
"r 	c #213717",
"s 	c #285014",
"t 	c #54912D",
"u 	c #6AA642",
"v 	c #92C073",
"w 	c #C9E1B7",
"x 	c #BFDBAB",
"y 	c #85B863",
"z 	c #65A23B",
"A 	c #52902C",
"B 	c #E2E3E2",
"C 	c #E1E2E1",
"D 	c #E1E1E1",
"E 	c #E2E1E1",
"F 	c #899086",
"G 	c #1F3A10",
"H 	c #5C9C33",
"I 	c #69AD3B",
"J 	c #6FB441",
"K 	c #7EBE54",
"L 	c #99CC77",
"M 	c #94CA70",
"N 	c #79BB4E",
"O 	c #6EB340",
"P 	c #E1E1E2",
"Q 	c #E0E0E0",
"R 	c #E0E1E0",
"S 	c #E1E1E0",
"T 	c #546948",
"U 	c #416F25",
"V 	c #73B844",
"W 	c #77BE47",
"X 	c #7BC149",
"Y 	c #7FC44C",
"Z 	c #84C852",
"` 	c #83C651",
" .	c #7DC44B",
"..	c #7AC149",
"+.	c #72B743",
"@.	c #406E25",
"#.	c #E1E0E0",
"$.	c #E0DFDF",
"%.	c #345724",
"&.	c #5B9137",
"*.	c #7FC44E",
"=.	c #84C850",
"-.	c #88CB52",
";.	c #8CCD54",
">.	c #90CF56",
",.	c #90CF55",
"'.	c #8BCD54",
").	c #87CB52",
"!.	c #83C850",
"~.	c #599037",
"{.	c #345723",
"].	c #DFE0DF",
"^.	c #E0E0DF",
"/.	c #DEDEDF",
"(.	c #DEDFDE",
"_.	c #395B28",
":.	c #63993E",
"<.	c #8BCC56",
"[.	c #90CF58",
"}.	c #96D25B",
"|.	c #9FD660",
"1.	c #A7D964",
"2.	c #A6D963",
"3.	c #9ED65F",
"4.	c #95D15B",
"5.	c #8ECE58",
"6.	c #8ACB56",
"7.	c #62973D",
"8.	c #385A28",
"9.	c #DFDEDE",
"0.	c #DDDDDD",
"a.	c #DEDDDE",
"b.	c #DDDDDE",
"c.	c #647C56",
"d.	c #5A8938",
"e.	c #93D05C",
"f.	c #9BD460",
"g.	c #A5D964",
"h.	c #B1DE6C",
"i.	c #BAE274",
"j.	c #BAE273",
"k.	c #AFDE6B",
"l.	c #A2D864",
"m.	c #99D45F",
"n.	c #92D05B",
"o.	c #598838",
"p.	c #637B56",
"q.	c #DDDEDE",
"r.	c #DCDDDD",
"s.	c #DDDCDD",
"t.	c #DCDCDD",
"u.	c #9FA99A",
"v.	c #436829",
"w.	c #96CD5F",
"x.	c #A5D866",
"y.	c #B0DE6E",
"z.	c #BDE476",
"A.	c #C6E77E",
"B.	c #C5E77E",
"C.	c #BBE375",
"D.	c #AEDD6C",
"E.	c #A2D865",
"F.	c #95CC5E",
"G.	c #416628",
"H.	c #A0A99A",
"I.	c #DDDCDC",
"J.	c #DBDCDB",
"K.	c #DCDCDC",
"L.	c #DBDBDC",
"M.	c #506F37",
"N.	c #709946",
"O.	c #A9D96B",
"P.	c #B6E073",
"Q.	c #C2E67C",
"R.	c #C9E982",
"S.	c #C8E982",
"T.	c #C0E47A",
"U.	c #B4DF72",
"V.	c #A7D86A",
"W.	c #6E9644",
"X.	c #4E6D35",
"Y.	c #DBDCDC",
"Z.	c #DCDCDB",
"`.	c #DBDADA",
" +	c #DBDADB",
".+	c #DADADB",
"++	c #DBDBDB",
"@+	c #577835",
"#+	c #85A953",
"$+	c #B1D971",
"%+	c #BEE27A",
"&+	c #C5E580",
"*+	c #C4E57F",
"=+	c #BDE279",
"-+	c #B0D870",
";+	c #82A751",
">+	c #547533",
",+	c #DADBDB",
"'+	c #D9DADA",
")+	c #DADADA",
"!+	c #D9DAD9",
"~+	c #DAD9DA",
"{+	c #678546",
"]+	c #7D9B4E",
"^+	c #98B861",
"/+	c #A7C76C",
"(+	c #A7C76B",
"_+	c #96B760",
":+	c #7B994C",
"<+	c #658344",
"[+	c #D9D8D8",
"}+	c #D8D9D9",
"|+	c #D9D9D9",
"1+	c #D9D9D8",
"2+	c #D6D6D6",
"3+	c #AAB4A3",
"4+	c #849A6B",
"5+	c #75934D",
"6+	c #779450",
"7+	c #83996B",
"8+	c #D5D6D6",
"9+	c #D9D8D9",
"0+	c #D8D7D8",
"a+	c #D7D8D8",
"b+	c #D8D8D8",
"c+	c #D4D4D4",
"d+	c #D8D8D7",
"e+	c #D7D7D7",
"f+	c #D7D7D6",
"g+	c #D6D7D7",
"h+	c #D7D6D7",
"i+	c #D7D6D6",
"j+	c #D6D5D6",
"k+	c #D6D6D5",
"l+	c #D5D5D5",
"m+	c #D6D5D5",
"n+	c #D5D4D5",
"o+	c #D4D5D4",
"p+	c #D4D5D5",
"q+	c #D4D4D3",
". . . . . . . . . . . . . . . . . . . . ",
"+ + + + + + + + + + + + + + + + + + + + ",
"@ @ @ @ @ @ @ @ @ @ @ @ @ @ @ @ @ @ @ @ ",
"# # # # # # # # # $ # % # $ # # # % # & ",
"* = = - ; = = = = = = = * = ; * = - = = ",
"> , , , , ' ) ! ~ { ] ^ ! , / , / ' , , ",
", ( _ ( _ : < [ } | 1 2 3 4 : 5 , ( _ 6 ",
"7 8 9 0 a b c d e f g h i j k a 0 l 0 m ",
"n o p q r s t u v w x y z A s r B q B n ",
"C D E F G H I J K L M N O I H G F P P D ",
"Q R S T U V W X Y Z `  ...W +.@.T Q #.#.",
"$.$.$.%.&.*.=.-.;.>.,.'.).!.*.~.{.].^.].",
"/./.(._.:.<.[.}.|.1.2.3.4.5.6.7.8.9.(.9.",
"0.a.b.c.d.e.f.g.h.i.j.k.l.m.n.o.p.a.b.q.",
"r.s.t.u.v.w.x.y.z.A.B.C.D.E.F.G.H.I.I.s.",
"J.K.K.L.M.N.O.P.Q.R.S.T.U.V.W.X.Y.Y.Z.K.",
"`. + +.+++@+#+$+%+&+*+=+-+;+>+++++,+++ +",
"'+)+'+!+~+)+{+]+^+/+(+_+:+<+)+)+)+~+!+)+",
"[+}+|+1+1+}+2+3+4+5+6+7+3+8+}+9+1+}+9+1+",
"0+a+b+b+b+0+b+0+2+c+c+2+b+d+a+b+b+b+0+0+",
"e+e+e+e+e+f+g+e+e+h+e+f+e+e+e+e+e+e+e+i+",
"j+2+j+2+2+k+8+k+j+2+l+2+2+2+2+m+j+2+2+2+",
"l+l+n+n+l+n+l+l+l+o+l+l+p+l+l+l+l+p+l+l+",
"c+c+c+q+q+c+c+c+c+c+c+c+c+c+c+c+q+c+c+c+"};
