/* XPM */
static char * maximize_pressed_xpm[] = {
"20 24 226 2",
"  	c None",
". 	c #939393",
"+ 	c #FFFFFF",
"@ 	c #E8E8E8",
"# 	c #E7E7E8",
"$ 	c #E7E7E7",
"% 	c #E7E8E7",
"& 	c #E6E6E6",
"* 	c #E7E6E6",
"= 	c #E6E6E7",
"- 	c #E5E5E5",
"; 	c #E5E5E6",
"> 	c #878E84",
", 	c #485942",
"' 	c #213919",
") 	c #243C1D",
"! 	c #465840",
"~ 	c #E6E5E6",
"{ 	c #E6E5E5",
"] 	c #E4E4E4",
"^ 	c #E5E4E4",
"/ 	c #A0A49F",
"( 	c #1D3615",
"_ 	c #203E15",
": 	c #345929",
"< 	c #4A6E40",
"[ 	c #476B3D",
"} 	c #305524",
"| 	c #1D3B12",
"1 	c #1D3514",
"2 	c #E4E4E5",
"3 	c #E3E3E4",
"4 	c #E3E4E3",
"5 	c #E3E3E3",
"6 	c #A1A4A0",
"7 	c #142E09",
"8 	c #254C14",
"9 	c #528337",
"0 	c #97B982",
"a 	c #DFEBD5",
"b 	c #D4E4C8",
"c 	c #87AE6E",
"d 	c #4B7E2E",
"e 	c #234B12",
"f 	c #132E09",
"g 	c #E3E2E2",
"h 	c #E3E3E2",
"i 	c #E2E2E2",
"j 	c #213717",
"k 	c #285014",
"l 	c #54912D",
"m 	c #6AA642",
"n 	c #89B56B",
"o 	c #3F5030",
"p 	c #3D502E",
"q 	c #82B35F",
"r 	c #65A23B",
"s 	c #52902C",
"t 	c #E1E2E1",
"u 	c #E2E1E1",
"v 	c #899086",
"w 	c #1F3A10",
"x 	c #5C9C33",
"y 	c #69AD3B",
"z 	c #6FB441",
"A 	c #74AE4D",
"B 	c #283A19",
"C 	c #273A19",
"D 	c #74B44B",
"E 	c #6EB340",
"F 	c #898F86",
"G 	c #E1E1E1",
"H 	c #E1E1E2",
"I 	c #E0E0E0",
"J 	c #E0E0E1",
"K 	c #546948",
"L 	c #416F25",
"M 	c #73B844",
"N 	c #76BB45",
"O 	c #78BB47",
"P 	c #70AE44",
"Q 	c #273A17",
"R 	c #75B646",
"S 	c #77BB46",
"T 	c #75BB45",
"U 	c #72B743",
"V 	c #406E25",
"W 	c #E0E1E0",
"X 	c #E1E0E1",
"Y 	c #DFDFDF",
"Z 	c #E0DFDF",
"` 	c #DFDFE0",
" .	c #345724",
"..	c #5B9137",
"+.	c #7FC44E",
"@.	c #2E451B",
"#.	c #273A18",
"$.	c #30491D",
"%.	c #599037",
"&.	c #345723",
"*.	c #DFE0E0",
"=.	c #E0DFE0",
"-.	c #DFDEDE",
";.	c #DEDFDF",
">.	c #395B28",
",.	c #63993E",
"'.	c #8BCC56",
").	c #2F451C",
"!.	c #283A18",
"~.	c #324A1E",
"{.	c #8ACB56",
"].	c #62973D",
"^.	c #385A28",
"/.	c #DEDFDE",
"(.	c #DDDDDD",
"_.	c #DDDEDD",
":.	c #647C56",
"<.	c #5A8938",
"[.	c #93D05C",
"}.	c #8EC258",
"|.	c #93C25A",
"1.	c #8FB557",
"2.	c #293B19",
"3.	c #94BE5B",
"4.	c #90C259",
"5.	c #8CC357",
"6.	c #92D05B",
"7.	c #598838",
"8.	c #637B56",
"9.	c #DEDDDE",
"0.	c #DEDDDD",
"a.	c #DDDDDE",
"b.	c #DCDCDC",
"c.	c #DDDDDC",
"d.	c #9FA99A",
"e.	c #436829",
"f.	c #96CD5F",
"g.	c #A5D866",
"h.	c #B0DE6E",
"i.	c #ABCF6C",
"j.	c #B2D970",
"k.	c #AEDD6C",
"l.	c #A2D865",
"m.	c #95CC5E",
"n.	c #416628",
"o.	c #A0A99A",
"p.	c #DCDDDD",
"q.	c #DBDCDC",
"r.	c #506F37",
"s.	c #709946",
"t.	c #A9D96B",
"u.	c #B6E073",
"v.	c #B2D471",
"w.	c #32441E",
"x.	c #B8DC76",
"y.	c #B4DF72",
"z.	c #A7D86A",
"A.	c #6E9644",
"B.	c #4E6D35",
"C.	c #DBDBDC",
"D.	c #DCDCDB",
"E.	c #DBDBDB",
"F.	c #DADBDA",
"G.	c #DBDADA",
"H.	c #DADADB",
"I.	c #577835",
"J.	c #85A953",
"K.	c #B1D971",
"L.	c #BEE27A",
"M.	c #C5E580",
"N.	c #C4E57F",
"O.	c #BDE279",
"P.	c #B0D870",
"Q.	c #82A751",
"R.	c #547533",
"S.	c #DADBDB",
"T.	c #DBDADB",
"U.	c #D9DADA",
"V.	c #D9D9DA",
"W.	c #DADAD9",
"X.	c #DADADA",
"Y.	c #678546",
"Z.	c #7D9B4E",
"`.	c #98B861",
" +	c #A7C76C",
".+	c #A7C76B",
"++	c #96B760",
"@+	c #7B994C",
"#+	c #658344",
"$+	c #D9DAD9",
"%+	c #DAD9DA",
"&+	c #D9D9D9",
"*+	c #D9D8D9",
"=+	c #D8D9D8",
"-+	c #D9D9D8",
";+	c #D6D5D6",
">+	c #AAB4A3",
",+	c #849A6B",
"'+	c #75934D",
")+	c #779450",
"!+	c #83996B",
"~+	c #D5D5D6",
"{+	c #D9D8D8",
"]+	c #D8D8D7",
"^+	c #D7D8D7",
"/+	c #D8D7D8",
"(+	c #D8D8D8",
"_+	c #D8D7D7",
":+	c #D6D6D6",
"<+	c #D4D4D4",
"[+	c #D7D7D8",
"}+	c #D7D7D7",
"|+	c #D7D6D7",
"1+	c #D7D7D6",
"2+	c #D6D7D7",
"3+	c #D7D6D6",
"4+	c #D6D6D7",
"5+	c #D5D6D6",
"6+	c #D6D6D5",
"7+	c #D6D5D5",
"8+	c #D5D5D4",
"9+	c #D5D5D5",
"0+	c #D4D5D5",
"a+	c #D3D3D4",
"b+	c #D4D4D3",
"c+	c #D3D4D4",
". . . . . . . . . . . . . . . . . . . . ",
"+ + + + + + + + + + + + + + + + + + + + ",
"@ @ @ @ @ @ @ @ @ @ @ @ @ @ @ @ @ @ @ @ ",
"# $ $ # $ $ $ # $ $ $ $ $ % $ $ $ % $ % ",
"& & & * * & & * & = & * & & = & & & & & ",
"- - - - - ; - > , ' ) ! > ~ - ; - { - - ",
"] ] ] ^ ] / ( _ : < [ } | 1 / ] ] ] 2 ] ",
"3 3 4 5 6 7 8 9 0 a b c d e f 6 5 5 5 3 ",
"g g h i j k l m n o p q r s k j h h i i ",
"t u i v w x y z A B C D E y x w F G G H ",
"I J I K L M N O P Q Q R S T U V K J W X ",
"Y Z `  ...+.@.Q Q #.#.Q Q $.+.%.&.*.=.I ",
"Y -.;.>.,.'.).!.!.!.!.!.#.~.{.].^./.Y /.",
"(._._.:.<.[.}.|.1.2.2.3.4.5.6.7.8.9.0.a.",
"(.b.c.d.e.f.g.h.i.2.2.j.k.l.m.n.o.p.b.c.",
"q.b.b.q.r.s.t.u.v.w.w.x.y.z.A.B.b.b.C.D.",
"E.F.F.G.H.I.J.K.L.M.N.O.P.Q.R.F.F.H.S.T.",
"U.V.W.V.X.X.Y.Z.`. +.+++@+#+$+W.%+&+X.$+",
"*+*+=+&+*+-+;+>+,+'+)+!+>+~+-+&+*+*+&+{+",
"]+^+/+(+(+/+(+_+:+<+<+;+[+(+^+(+]+(+(+}+",
"|+1+}+|+2+}+}+|+1+}+}+3+}+|+}+}+4+}+4+3+",
":+5+:+;+;+6+:+7+;+:+:+5+6+:+6+:+:+~+:+:+",
"8+8+9+9+9+0+8+9+9+9+9+9+9+9+9+9+9+9+9+0+",
"a+<+<+<+<+b+<+b+<+<+b+c+<+<+<+<+<+c+<+<+"};
