/* XPM */
static char * maximize_prelight_xpm[] = {
"20 24 230 2",
"  	c None",
". 	c #939393",
"+ 	c #FFFFFF",
"@ 	c #E8E8E8",
"# 	c #E7E7E7",
"$ 	c #E6E6E6",
"% 	c #E6E7E6",
"& 	c #E6E6E7",
"* 	c #E7E6E6",
"= 	c #E6E5E5",
"- 	c #E5E5E5",
"; 	c #878E84",
"> 	c #485942",
", 	c #213919",
"' 	c #243C1D",
") 	c #465840",
"! 	c #E6E6E5",
"~ 	c #E4E4E4",
"{ 	c #E4E4E5",
"] 	c #A0A49F",
"^ 	c #1D3615",
"/ 	c #203E15",
"( 	c #345929",
"_ 	c #4A6E40",
": 	c #476B3D",
"< 	c #305524",
"[ 	c #1D3B12",
"} 	c #1D3514",
"| 	c #E4E5E4",
"1 	c #E3E3E4",
"2 	c #E3E4E3",
"3 	c #E3E3E3",
"4 	c #E3E4E4",
"5 	c #A1A4A0",
"6 	c #142E09",
"7 	c #254C14",
"8 	c #528337",
"9 	c #97B982",
"0 	c #DFEBD5",
"a 	c #D4E4C8",
"b 	c #87AE6E",
"c 	c #4B7E2E",
"d 	c #234B12",
"e 	c #132E09",
"f 	c #E4E3E3",
"g 	c #E2E3E2",
"h 	c #E2E2E2",
"i 	c #E3E2E2",
"j 	c #213717",
"k 	c #285014",
"l 	c #54912D",
"m 	c #6AA642",
"n 	c #89B56B",
"o 	c #3F5030",
"p 	c #3D502E",
"q 	c #82B35F",
"r 	c #65A23B",
"s 	c #52902C",
"t 	c #E3E2E3",
"u 	c #E2E2E3",
"v 	c #E1E1E1",
"w 	c #E1E1E2",
"x 	c #899086",
"y 	c #1F3A10",
"z 	c #5C9C33",
"A 	c #69AD3B",
"B 	c #6FB441",
"C 	c #74AE4D",
"D 	c #283A19",
"E 	c #273A19",
"F 	c #74B44B",
"G 	c #6EB340",
"H 	c #898F86",
"I 	c #E2E2E1",
"J 	c #E1E2E1",
"K 	c #E1E1E0",
"L 	c #E1E0E1",
"M 	c #E0E1E1",
"N 	c #546948",
"O 	c #416F25",
"P 	c #73B844",
"Q 	c #76BB45",
"R 	c #78BB47",
"S 	c #70AE44",
"T 	c #273A17",
"U 	c #75B646",
"V 	c #77BB46",
"W 	c #75BB45",
"X 	c #72B743",
"Y 	c #406E25",
"Z 	c #E0E1E0",
"` 	c #E0E0E1",
" .	c #E0E0E0",
"..	c #E0E0DF",
"+.	c #DFE0DF",
"@.	c #345724",
"#.	c #5B9137",
"$.	c #7FC44E",
"%.	c #2E451B",
"&.	c #273A18",
"*.	c #30491D",
"=.	c #599037",
"-.	c #345723",
";.	c #DFDFDF",
">.	c #DFDFE0",
",.	c #E0DFE0",
"'.	c #DEDEDE",
").	c #DFDFDE",
"!.	c #395B28",
"~.	c #63993E",
"{.	c #8BCC56",
"].	c #2F451C",
"^.	c #283A18",
"/.	c #324A1E",
"(.	c #8ACB56",
"_.	c #62973D",
":.	c #385A28",
"<.	c #DFDEDF",
"[.	c #DEDFDF",
"}.	c #DEDEDF",
"|.	c #DDDDDD",
"1.	c #DDDEDE",
"2.	c #647C56",
"3.	c #5A8938",
"4.	c #93D05C",
"5.	c #8EC258",
"6.	c #93C25A",
"7.	c #8FB557",
"8.	c #293B19",
"9.	c #94BE5B",
"0.	c #90C259",
"a.	c #8CC357",
"b.	c #92D05B",
"c.	c #598838",
"d.	c #637B56",
"e.	c #DEDEDD",
"f.	c #DCDCDC",
"g.	c #DCDDDD",
"h.	c #DDDDDC",
"i.	c #9FA99A",
"j.	c #436829",
"k.	c #96CD5F",
"l.	c #A5D866",
"m.	c #B0DE6E",
"n.	c #ABCF6C",
"o.	c #B2D970",
"p.	c #AEDD6C",
"q.	c #A2D865",
"r.	c #95CC5E",
"s.	c #416628",
"t.	c #A0A99A",
"u.	c #DCDDDC",
"v.	c #DCDCDD",
"w.	c #DBDCDC",
"x.	c #DBDBDB",
"y.	c #506F37",
"z.	c #709946",
"A.	c #A9D96B",
"B.	c #B6E073",
"C.	c #B2D471",
"D.	c #32441E",
"E.	c #B8DC76",
"F.	c #B4DF72",
"G.	c #A7D86A",
"H.	c #6E9644",
"I.	c #4E6D35",
"J.	c #DBDCDB",
"K.	c #DCDBDB",
"L.	c #DCDCDB",
"M.	c #DBDBDA",
"N.	c #DADBDA",
"O.	c #DADADA",
"P.	c #DBDADB",
"Q.	c #577835",
"R.	c #85A953",
"S.	c #B1D971",
"T.	c #BEE27A",
"U.	c #C5E580",
"V.	c #C4E57F",
"W.	c #BDE279",
"X.	c #B0D870",
"Y.	c #82A751",
"Z.	c #547533",
"`.	c #D9D9D9",
" +	c #DAD9DA",
".+	c #DADAD9",
"++	c #678546",
"@+	c #7D9B4E",
"#+	c #98B861",
"$+	c #A7C76C",
"%+	c #A7C76B",
"&+	c #96B760",
"*+	c #7B994C",
"=+	c #658344",
"-+	c #DAD9D9",
";+	c #D9DADA",
">+	c #D9D8D9",
",+	c #D9D9D8",
"'+	c #D6D6D6",
")+	c #AAB4A3",
"!+	c #849A6B",
"~+	c #75934D",
"{+	c #779450",
"]+	c #83996B",
"^+	c #D9D8D8",
"/+	c #D8D8D9",
"(+	c #D8D8D8",
"_+	c #D8D9D8",
":+	c #D8D7D8",
"<+	c #D7D8D8",
"[+	c #D8D8D7",
"}+	c #D6D6D5",
"|+	c #D4D4D4",
"1+	c #D6D5D6",
"2+	c #D7D8D7",
"3+	c #D7D7D8",
"4+	c #D7D7D7",
"5+	c #D7D6D7",
"6+	c #D6D6D7",
"7+	c #D6D7D7",
"8+	c #D7D7D6",
"9+	c #D7D6D6",
"0+	c #D5D6D6",
"a+	c #D6D5D5",
"b+	c #D5D6D5",
"c+	c #D5D5D5",
"d+	c #D5D4D5",
"e+	c #D3D4D4",
"f+	c #D4D3D4",
"g+	c #D4D4D3",
". . . . . . . . . . . . . . . . . . . . ",
"+ + + + + + + + + + + + + + + + + + + + ",
"@ @ @ @ @ @ @ @ @ @ @ @ @ @ @ @ @ @ @ @ ",
"# # # # # # # # # # # # # # # # # # # # ",
"$ $ $ $ % & * $ $ $ $ $ % % $ $ $ $ $ $ ",
"= - - - - - - ; > , ' ) ; ! - ! - - ! = ",
"~ ~ ~ ~ { ] ^ / ( _ : < [ } ] ~ | ~ | ~ ",
"1 2 3 4 5 6 7 8 9 0 a b c d e 5 f 3 1 f ",
"3 g h i j k l m n o p q r s k j h t t u ",
"v w v x y z A B C D E F G A z y H I J v ",
"K L M N O P Q R S T T U V W X Y N Z `  .",
"..+.+.@.#.$.%.T T &.&.T T *.$.=.-.;.>.,.",
"'.).;.!.~.{.].^.^.^.^.^.&./.(._.:.<.[.}.",
"|.1.'.2.3.4.5.6.7.8.8.9.0.a.b.c.d.e.'.e.",
"f.g.h.i.j.k.l.m.n.8.8.o.p.q.r.s.t.|.u.v.",
"f.w.w.x.y.z.A.B.C.D.D.E.F.G.H.I.J.K.L.J.",
"M.N.M.O.P.Q.R.S.T.U.V.W.X.Y.Z.N.P.x.P.N.",
"`. +`. +O..+++@+#+$+%+&+*+=+ +-+;+O.;+;+",
">+`.`.`.>+,+'+)+!+~+{+]+)+'+^+`.`./+(+_+",
":+:+<+[+:+:+(+<+}+|+|+1+<+2+[+3+[+[+[+[+",
"4+5+5+4+6+7+8+5+6+4+5+5+8+4+7+4+9+5+4+4+",
"0+'+'+1+'+a+}+'+'+'+'+'+b+}+0+0+'+'+'+'+",
"c+d+c+c+c+c+c+c+c+c+d+c+c+c+c+c+c+c+c+c+",
"|+e+f+|+|+|+|+g+|+g+g+|+|+|+|+g+|+|+|+|+"};
