/* XPM */
static char * hide_inactive_xpm[] = {
"20 24 173 2",
"  	c None",
". 	c #939393",
"+ 	c #FFFFFF",
"@ 	c #E8E8E8",
"# 	c #E7E7E7",
"$ 	c #E7E7E8",
"% 	c #E7E8E7",
"& 	c #E6E6E6",
"* 	c #E6E6E7",
"= 	c #E5E5E5",
"- 	c #E5E6E5",
"; 	c #B3B3B3",
"> 	c #838383",
", 	c #5E5E5E",
"' 	c #636363",
") 	c #858585",
"! 	c #E6E5E5",
"~ 	c #E6E6E5",
"{ 	c #E6E5E6",
"] 	c #E5E5E6",
"^ 	c #E4E4E4",
"/ 	c #E4E5E4",
"( 	c #C2C2C2",
"_ 	c #5F5F5F",
": 	c #6C6C6C",
"< 	c #8B8B8B",
"[ 	c #A4A4A4",
"} 	c #A5A5A5",
"| 	c #8E8E8E",
"1 	c #707070",
"2 	c #C4C4C4",
"3 	c #E4E4E5",
"4 	c #E4E5E5",
"5 	c #E3E4E3",
"6 	c #E3E3E4",
"7 	c #E3E3E3",
"8 	c #595959",
"9 	c #7E7E7E",
"0 	c #ACACAC",
"a 	c #D4D4D4",
"b 	c #F4F4F4",
"c 	c #F5F5F5",
"d 	c #D7D7D7",
"e 	c #AFAFAF",
"f 	c #5D5D5D",
"g 	c #C3C3C3",
"h 	c #E4E3E3",
"i 	c #E2E2E2",
"j 	c #E2E3E2",
"k 	c #E3E3E2",
"l 	c #656565",
"m 	c #848484",
"n 	c #C5C5C5",
"o 	c #DADADA",
"p 	c #F1F1F1",
"q 	c #F2F2F2",
"r 	c #DBDBDB",
"s 	c #C8C8C8",
"t 	c #B4B4B4",
"u 	c #898989",
"v 	c #6A6A6A",
"w 	c #E2E3E3",
"x 	c #E1E1E1",
"y 	c #E2E1E1",
"z 	c #B2B2B2",
"A 	c #737373",
"B 	c #CFCFCF",
"C 	c #DCDCDC",
"D 	c #DDDDDD",
"E 	c #D2D2D2",
"F 	c #C6C6C6",
"G 	c #B8B8B8",
"H 	c #787878",
"I 	c #B5B5B5",
"J 	c #E2E1E2",
"K 	c #E0E1E0",
"L 	c #E1E1E0",
"M 	c #E0E0E1",
"N 	c #959595",
"O 	c #9B9B9B",
"P 	c #D1D1D1",
"Q 	c #A0A0A0",
"R 	c #999999",
"S 	c #E0E0E0",
"T 	c #E0DFE0",
"U 	c #E0DFDF",
"V 	c #8D8D8D",
"W 	c #B0B0B0",
"X 	c #CDCDCD",
"Y 	c #E9E9E9",
"Z 	c #EBEBEB",
"` 	c #ECECEC",
" .	c #EAEAEA",
"..	c #D0D0D0",
"+.	c #919191",
"@.	c #DFDFDF",
"#.	c #DFDEDE",
"$.	c #DEDFDE",
"%.	c #DFDFDE",
"&.	c #909090",
"*.	c #B6B6B6",
"=.	c #D6D6D6",
"-.	c #EDEDED",
";.	c #EFEFEF",
">.	c #F0F0F0",
",.	c #EEEEEE",
"'.	c #D9D9D9",
").	c #BABABA",
"!.	c #949494",
"~.	c #DEDEDF",
"{.	c #DDDEDD",
"].	c #DEDEDE",
"^.	c #DEDDDE",
"/.	c #A3A3A3",
"(.	c #B1B1B1",
"_.	c #A6A6A6",
":.	c #DEDEDD",
"<.	c #DDDEDE",
"[.	c #DEDDDD",
"}.	c #DCDDDC",
"|.	c #DDDDDC",
"1.	c #9E9E9E",
"2.	c #F3F3F3",
"3.	c #A2A2A2",
"4.	c #DCDCDD",
"5.	c #DDDCDC",
"6.	c #DCDBDB",
"7.	c #DBDBDC",
"8.	c #989898",
"9.	c #BFBFBF",
"0.	c #9A9A9A",
"a.	c #DCDCDB",
"b.	c #DADBDB",
"c.	c #DBDADA",
"d.	c #DBDADB",
"e.	c #DBDBDA",
"f.	c #9D9D9D",
"g.	c #CBCBCB",
"h.	c #DADADB",
"i.	c #DADAD9",
"j.	c #D9DADA",
"k.	c #C1C1C1",
"l.	c #A9A9A9",
"m.	c #D9D9DA",
"n.	c #DAD9D9",
"o.	c #D8D9D9",
"p.	c #D9D9D8",
"q.	c #D4D3D3",
"r.	c #D3D3D3",
"s.	c #D9D8D9",
"t.	c #D9D8D8",
"u.	c #D7D8D8",
"v.	c #D8D8D8",
"w.	c #D8D8D7",
"x.	c #D7D8D7",
"y.	c #D8D7D8",
"z.	c #D8D7D7",
"A.	c #D7D6D6",
"B.	c #D7D7D6",
"C.	c #D6D7D7",
"D.	c #D6D6D7",
"E.	c #D7D6D7",
"F.	c #D6D6D5",
"G.	c #D5D6D5",
"H.	c #D5D6D6",
"I.	c #D6D5D6",
"J.	c #D5D5D5",
"K.	c #D5D4D5",
"L.	c #D5D4D4",
"M.	c #D4D5D5",
"N.	c #D5D5D4",
"O.	c #D3D4D4",
"P.	c #D4D4D3",
". . . . . . . . . . . . . . . . . . . . ",
"+ + + + + + + + + + + + + + + + + + + + ",
"@ @ @ @ @ @ @ @ @ @ @ @ @ @ @ @ @ @ @ @ ",
"# # # # # # # # # $ # % # # # # # # # # ",
"& & * & & & & & & & & & & & & * & & & & ",
"= - = = = = = ; > , ' ) ; ! ~ = { = ] = ",
"^ ^ ^ ^ / ( _ : < [ } | 1 ' 2 ^ 3 4 ^ 4 ",
"5 6 7 5 ( 8 9 0 a b c d e > f g 7 h 6 5 ",
"i j k i l m e n o p q r s t u v i w i i ",
"x y x z A t g B C # @ D E F G H I x J y ",
"K L M N O ( P r x & # 7 D a F Q R S M S ",
"T U U V W X r 7 Y Z `  .= D ..; +.@.U U ",
"#.$.%.&.*.=.x @ -.;.>.,. .7 '.).!.~.$.#.",
"{.].^./.(.r ^  .;.p p >.` # D I _.:.<.[.",
"}.|.D ( 1.D # ` >.2.b p ,.Y ].3.2 D 4.5.",
"6.7.C C 8.9.@ ` >.q q p ,.Y ( 0.C C C a.",
"b.c.d.r e.f.g.Z ;.p p ;.Z X Q r h.c.d.d.",
"i.i.o j.o o } 9.'.^ ^ '.k.l.j.m.o n.o j.",
"o.p.'.p.p.p.q.F ; ; *.I F r.s.t.t.o.'.'.",
"u.u.v.v.w.v.w.v.a r.r.a x.w.v.y.w.v.v.z.",
"A.d d B.C.B.d d C.d d B.D.d B.d B.E.C.B.",
"F.=.=.=.=.=.G.G.F.H.=.=.=.F.I.=.F.=.=.=.",
"J.K.K.K.J.J.J.L.M.J.J.J.N.J.J.J.J.J.J.J.",
"a a O.a a P.a a a a a a a a a a a a O.P."};
