/* XPM */
static char * menu_pressed_xpm[] = {
"20 24 166 2",
"  	c None",
". 	c #939393",
"+ 	c #FFFFFF",
"@ 	c #E8E8E8",
"# 	c #E7E7E7",
"$ 	c #E7E7E8",
"% 	c #E8E7E7",
"& 	c #E7E8E7",
"* 	c #E8E7E8",
"= 	c #E6E6E6",
"- 	c #E7E6E6",
"; 	c #E6E7E6",
"> 	c #E6E6E7",
", 	c #E5E6E5",
"' 	c #E5E5E5",
") 	c #E5E6E6",
"! 	c #E6E5E5",
"~ 	c #E6E5E6",
"{ 	c #E5E5E6",
"] 	c #E6E6E5",
"^ 	c #E4E4E4",
"/ 	c #E4E4E5",
"( 	c #E4E5E4",
"_ 	c #E5E4E4",
": 	c #E3E3E4",
"< 	c #E3E3E3",
"[ 	c #858598",
"} 	c #44446C",
"| 	c #1B1B51",
"1 	c #222255",
"2 	c #1A1B51",
"3 	c #E2E2E2",
"4 	c #646785",
"5 	c #1E2058",
"6 	c #585882",
"7 	c #9A99B1",
"8 	c #A0A0B5",
"9 	c #A5A5BB",
"0 	c #A2A1B7",
"a 	c #9495AB",
"b 	c #5B5C84",
"c 	c #1E235B",
"d 	c #646887",
"e 	c #E3E2E2",
"f 	c #858A9E",
"g 	c #182264",
"h 	c #626EA8",
"i 	c #91A5CB",
"j 	c #8CA7D3",
"k 	c #8FABD8",
"l 	c #91ACD9",
"m 	c #8FA4CB",
"n 	c #707CAC",
"o 	c #1A2968",
"p 	c #858BA0",
"q 	c #445685",
"r 	c #154D9E",
"s 	c #4D8ACB",
"t 	c #609ED9",
"u 	c #5E9DDB",
"v 	c #5E9FDC",
"w 	c #5F9FDD",
"x 	c #609DD9",
"y 	c #568FCC",
"z 	c #18529F",
"A 	c #435888",
"B 	c #214281",
"C 	c #1769B5",
"D 	c #4D93D9",
"E 	c #5A9FE2",
"F 	c #599FE3",
"G 	c #589FE3",
"H 	c #5DA0E2",
"I 	c #4B91D8",
"J 	c #1A69B5",
"K 	c #224485",
"L 	c #214D8F",
"M 	c #478ACD",
"N 	c #6DACEC",
"O 	c #70AFEF",
"P 	c #6FAFEF",
"Q 	c #6DAEEE",
"R 	c #67A8EA",
"S 	c #4D8ECE",
"T 	c #214F93",
"U 	c #4A73AA",
"V 	c #69A5E2",
"W 	c #81BEF8",
"X 	c #8AC6FC",
"Y 	c #89C6FC",
"Z 	c #88C6FC",
"` 	c #81BEF7",
" .	c #4975AC",
"..	c #91A7C2",
"+.	c #2465AC",
"@.	c #7DC1E6",
"#.	c #9FE1FD",
"$.	c #A1E6FC",
"%.	c #9FE0FD",
"&.	c #7DBFE6",
"*.	c #2568B0",
"=.	c #90A8C3",
"-.	c #C3C3C3",
";.	c #739DC8",
">.	c #2772BA",
",.	c #7BBFDD",
"'.	c #B3F4F9",
").	c #BCFBFB",
"!.	c #BDFEFE",
"~.	c #BDFDFD",
"{.	c #B2F2F7",
"].	c #7ABFDE",
"^.	c #2773BC",
"/.	c #739ECA",
"(.	c #DBDBDB",
"_.	c #C8C8C8",
":.	c #9AB9D5",
"<.	c #4A8CCA",
"[.	c #1970C3",
"}.	c #2175C5",
"|.	c #1971C4",
"1.	c #1972C5",
"2.	c #1971C5",
"3.	c #2177C6",
"4.	c #4A8ECB",
"5.	c #9AB9D6",
"6.	c #DADBDA",
"7.	c #D9DAD9",
"8.	c #DADADA",
"9.	c #D1D1D1",
"0.	c #DDDDDD",
"a.	c #E0E0E0",
"b.	c #DAD9DA",
"c.	c #D9DADA",
"d.	c #D9D8D8",
"e.	c #D9D9D9",
"f.	c #D9D8D9",
"g.	c #D9D9D8",
"h.	c #D8D9D9",
"i.	c #D8D8D9",
"j.	c #D8D8D8",
"k.	c #D7D8D8",
"l.	c #D7D8D7",
"m.	c #D8D7D8",
"n.	c #D8D8D7",
"o.	c #D8D7D7",
"p.	c #D7D7D7",
"q.	c #D7D6D7",
"r.	c #D7D7D6",
"s.	c #D6D7D7",
"t.	c #D6D6D7",
"u.	c #D7D6D6",
"v.	c #D6D6D5",
"w.	c #D6D6D6",
"x.	c #D5D6D6",
"y.	c #D5D5D6",
"z.	c #D6D5D6",
"A.	c #D5D5D5",
"B.	c #D5D5D4",
"C.	c #D5D4D4",
"D.	c #D5D4D5",
"E.	c #D4D5D5",
"F.	c #D4D4D4",
"G.	c #D4D4D3",
"H.	c #D3D4D4",
"I.	c #D4D3D4",
". . . . . . . . . . . . . . . . . . . . ",
"+ + + + + + + + + + + + + + + + + + + + ",
"@ @ @ @ @ @ @ @ @ @ @ @ @ @ @ @ @ @ @ @ ",
"# # # # # # # $ % % # % # # & # # * # $ ",
"= - = = - = = ; > = = ; = = = = = = = = ",
", ' , ' ' ' ' ) ' ' ! ' ' ~ ! ' { ' ' ] ",
"^ ^ / ( _ ^ ^ ^ ^ ( ^ _ / _ ^ _ ^ ^ ^ ^ ",
": < [ } | 1 | | | | 2 | | | | 1 } [ : : ",
"3 4 5 6 7 8 9 9 9 9 9 9 9 9 0 a b c d e ",
"f g h i j k l l l l l l l l k j m n o p ",
"q r s t u v w w w w w w w w v u x y z A ",
"B C D E F G G G G G G G G G G G H I J K ",
"L M N O P P P P P P P P P P P P Q R S T ",
"U V W X Y Y Y Y Y Y Y Y Y Y Y Y Z ` V  .",
"..+.@.#.$.$.$.$.$.$.$.$.$.$.$.$.%.&.*.=.",
"-.;.>.,.'.).!.!.!.!.!.!.!.!.~.{.].^./.-.",
"(._.:.<.[.}.|.|.1.|.2.1.1.1.1.3.4.5._.6.",
"7.8.-.9.0.a.a.a.a.a.a.a.a.a.a.0.9.-.b.c.",
"d.e.e.e.e.f.g.h.e.i.g.e.e.e.e.e.f.j.e.g.",
"k.j.l.j.j.j.k.j.m.n.j.l.k.n.m.m.o.j.j.j.",
"p.q.r.r.s.t.r.p.q.p.p.p.u.q.r.r.p.s.p.p.",
"v.w.w.x.w.w.v.w.v.y.w.w.w.w.z.w.w.x.w.w.",
"A.B.C.A.A.A.A.A.A.A.D.A.A.A.A.E.D.A.A.A.",
"F.F.F.F.G.F.F.F.H.F.F.F.F.F.F.F.I.F.F.F."};
