/* XPM */
static char * menu_active_xpm[] = {
"20 24 108 2",
"  	c None",
". 	c #939393",
"+ 	c #FFFFFF",
"@ 	c #E8E8E8",
"# 	c #E8E7E8",
"$ 	c #E8E8E7",
"% 	c #E7E7E7",
"& 	c #E6E6E6",
"* 	c #E7E6E6",
"= 	c #E5E5E6",
"- 	c #E5E5E5",
"; 	c #E5E6E5",
"> 	c #E6E5E5",
", 	c #E6E6E5",
"' 	c #E4E4E5",
") 	c #E4E5E4",
"! 	c #E5E4E5",
"~ 	c #E4E4E4",
"{ 	c #E4E5E5",
"] 	c #E5E4E4",
"^ 	c #E3E3E3",
"/ 	c #ACACAC",
"( 	c #979797",
"_ 	c #8A8A8A",
": 	c #8C8C8C",
"< 	c #E2E3E3",
"[ 	c #A2A2A2",
"} 	c #BDBCBD",
"| 	c #D0D0D0",
"1 	c #BDBDBD",
"2 	c #E2E2E2",
"3 	c #ADADAD",
"4 	c #CACACA",
"5 	c #D1D1D1",
"6 	c #CECECE",
"7 	c #989798",
"8 	c #9B9B9B",
"9 	c #B5B5B5",
"0 	c #C8C8C8",
"a 	c #C9C9C9",
"b 	c #C7C8C7",
"c 	c #BEBDBE",
"d 	c #C1C1C1",
"e 	c #BFBFBF",
"f 	c #BEBEBE",
"g 	c #C1C0C1",
"h 	c #939292",
"i 	c #949494",
"j 	c #C4C4C4",
"k 	c #C3C3C3",
"l 	c #B9B9B9",
"m 	c #CBCBCA",
"n 	c #CBCBCB",
"o 	c #CCCCCC",
"p 	c #CACACB",
"q 	c #B8B8B8",
"r 	c #A0A0A1",
"s 	c #CDCDCD",
"t 	c #D8D8D8",
"u 	c #D7D7D7",
"v 	c #A1A0A0",
"w 	c #B0B0B1",
"x 	c #A4A4A4",
"y 	c #D4D4D4",
"z 	c #A3A4A3",
"A 	c #DADADB",
"B 	c #BCBCBC",
"C 	c #A7A7A7",
"D 	c #9A9A9A",
"E 	c #9C9C9C",
"F 	c #9A9A99",
"G 	c #9A9999",
"H 	c #9B9B9A",
"I 	c #9B9A9B",
"J 	c #DADBDB",
"K 	c #D9DADA",
"L 	c #D9D9DA",
"M 	c #CFCFCF",
"N 	c #DAD9D9",
"O 	c #D9D9D9",
"P 	c #D9D8D9",
"Q 	c #D8D8D9",
"R 	c #D9D9D8",
"S 	c #D8D9D9",
"T 	c #D9D8D8",
"U 	c #D8D9D8",
"V 	c #D8D7D7",
"W 	c #D7D8D8",
"X 	c #D7D7D8",
"Y 	c #D8D8D7",
"Z 	c #D8D7D8",
"` 	c #D6D7D6",
" .	c #D7D6D7",
"..	c #D6D6D6",
"+.	c #D7D7D6",
"@.	c #D6D7D7",
"#.	c #D6D6D7",
"$.	c #D6D5D6",
"%.	c #D5D6D6",
"&.	c #D6D6D5",
"*.	c #D5D5D6",
"=.	c #D5D5D5",
"-.	c #D5D4D4",
";.	c #D5D5D4",
">.	c #D5D4D5",
",.	c #D4D3D4",
"'.	c #D3D4D4",
").	c #D3D3D4",
". . . . . . . . . . . . . . . . . . . . ",
"+ + + + + + + + + + + + + + + + + + + + ",
"@ @ # @ @ @ @ @ @ @ @ @ @ @ $ @ @ @ @ @ ",
"% % % % % % % % % % % % % % % % % % % % ",
"& & & & & & * & & * & & * & & & & & & * ",
"= - - - ; > - - - - - > - - - - , > - = ",
"' ) ! ~ ~ ~ ~ ~ ~ ~ ~ ~ ~ ) ~ ~ ~ { ~ ] ",
"^ ^ / ( _ : _ _ _ _ _ _ _ _ _ : ( / ^ ^ ",
"< [ ( } | | | | | | | | | | | | 1 ( [ 2 ",
"3 ( 4 5 5 5 | | | | | | | | | 5 6 4 7 3 ",
"8 9 0 a a 0 0 0 0 0 0 0 0 0 0 0 b 0 9 8 ",
". c d e e f f f f f f f f f f e g d 1 h ",
"i d j k k k k k k k k k k k k k j j d i ",
"[ l m n n n n n n n n n n n n o p n l [ ",
"q r s t t u u u u u u u t t t t 5 s v q ",
"j w x j 5 5 | | | | 5 5 5 5 5 y j z w j ",
"A 0 B C D E D F G H I D D D D E C B 0 J ",
"K L j n 6 M M M M M M M M M M 6 n j K N ",
"O P P O Q P O R S R P O O T T t U P O t ",
"V W X t Y Y t t Y W Z X W t Z X t W Y W ",
"u ` u u  ... .` ` u +.u @.#.+.u  . .#.u ",
"..$.%...&...$.........&.%.%...$.&.....*.",
"=.=.=.-.;.=.=.=.=.>.=.=.=.=.;.=.=.=.=.=.",
"y y ,.y y y y '.y y ).y ,.y y y ,.'.y y "};
