/* XPM */
static char * menu_inactive_xpm[] = {
"20 24 110 2",
"  	c None",
". 	c #939393",
"+ 	c #FFFFFF",
"@ 	c #E8E8E8",
"# 	c #E7E7E7",
"$ 	c #E8E7E7",
"% 	c #E6E6E6",
"& 	c #E7E6E6",
"* 	c #E6E6E7",
"= 	c #E6E7E6",
"- 	c #E5E5E5",
"; 	c #E5E6E5",
"> 	c #E5E5E6",
", 	c #E4E4E4",
"' 	c #E5E4E4",
") 	c #E5E5E4",
"! 	c #E4E4E5",
"~ 	c #E4E5E5",
"{ 	c #E4E5E4",
"] 	c #E3E3E4",
"^ 	c #E3E3E3",
"/ 	c #ACACAC",
"( 	c #979797",
"_ 	c #8A8A8A",
": 	c #8C8C8C",
"< 	c #E3E4E3",
"[ 	c #E2E2E2",
"} 	c #A2A2A2",
"| 	c #BDBCBD",
"1 	c #D0D0D0",
"2 	c #BCBCBC",
"3 	c #ADADAD",
"4 	c #CACACA",
"5 	c #D1D1D1",
"6 	c #CDCDCD",
"7 	c #C9C9C9",
"8 	c #989798",
"9 	c #9B9B9B",
"0 	c #B5B5B5",
"a 	c #C8C8C8",
"b 	c #C6C7C6",
"c 	c #C7C7C7",
"d 	c #B4B4B4",
"e 	c #BEBDBE",
"f 	c #C1C1C1",
"g 	c #BFBFBF",
"h 	c #BEBEBE",
"i 	c #C0C0C0",
"j 	c #C1C0C0",
"k 	c #BDBDBD",
"l 	c #939292",
"m 	c #949494",
"n 	c #C4C4C4",
"o 	c #C3C3C3",
"p 	c #C3C4C4",
"q 	c #B9B9B9",
"r 	c #CBCBCA",
"s 	c #CCCCCC",
"t 	c #CBCBCB",
"u 	c #CACACB",
"v 	c #B8B8B8",
"w 	c #A0A0A1",
"x 	c #D8D8D8",
"y 	c #D7D7D7",
"z 	c #A1A0A0",
"A 	c #B0B0B1",
"B 	c #A4A4A4",
"C 	c #D4D4D4",
"D 	c #A3A4A3",
"E 	c #DBDBDB",
"F 	c #A7A7A7",
"G 	c #9A9A9A",
"H 	c #9C9C9C",
"I 	c #99999A",
"J 	c #9A9A99",
"K 	c #9A9999",
"L 	c #9B9B9A",
"M 	c #9A999A",
"N 	c #D9D9DA",
"O 	c #D9D9D9",
"P 	c #CECECE",
"Q 	c #CFCFCF",
"R 	c #DADADA",
"S 	c #D9DADA",
"T 	c #D8D9D9",
"U 	c #D9D8D9",
"V 	c #D9D9D8",
"W 	c #D8D9D8",
"X 	c #D7D8D8",
"Y 	c #D8D7D8",
"Z 	c #D8D7D7",
"` 	c #D8D8D7",
" .	c #D7D7D8",
"..	c #D7D6D7",
"+.	c #D6D7D7",
"@.	c #D6D6D7",
"#.	c #D7D7D6",
"$.	c #D6D6D6",
"%.	c #D6D5D6",
"&.	c #D5D6D6",
"*.	c #D5D5D6",
"=.	c #D6D6D5",
"-.	c #D6D5D5",
";.	c #D5D5D5",
">.	c #D5D5D4",
",.	c #D5D4D5",
"'.	c #D4D5D5",
").	c #D3D4D4",
"!.	c #D3D3D4",
"~.	c #D4D3D4",
". . . . . . . . . . . . . . . . . . . . ",
"+ + + + + + + + + + + + + + + + + + + + ",
"@ @ @ @ @ @ @ @ @ @ @ @ @ @ @ @ @ @ @ @ ",
"# # $ # $ # # # # # # # # # # # # # # # ",
"% % & * % % * % % = % % * % % * = * * % ",
"- - - ; - ; > - - - - ; - - > - ; > - - ",
", ' , ) ! , , , , ~ - , , ! ! { { , , , ",
"] ^ / ( _ : _ _ _ _ _ _ _ _ _ : ( / < ] ",
"[ } ( | 1 1 1 1 1 1 1 1 1 1 1 1 2 ( } [ ",
"3 ( 4 5 5 5 5 1 1 1 1 1 1 1 1 1 6 7 8 3 ",
"9 0 a 7 7 7 a a a a a a a a a a b c d 9 ",
". e f g g g h h h h h h h h h h i j k l ",
"m f n n n o o o o o o o o o o o p n f m ",
"} q r s t t t t t t t t t t t s u t q } ",
"v w 6 x x x y y y y y y y x x x 5 6 z v ",
"n A B n 5 5 1 1 1 1 5 5 5 5 5 C n D A n ",
"E a 2 F G H I J K L M G G G G H F 2 a E ",
"N O n t P Q Q Q Q Q Q Q Q Q Q P t n R S ",
"x T T O U U O U T O V T T O U O O W U V ",
"X Y X x x X x x x Z x ` x  .Z x Y Y Z X ",
"..y y +.@.y @.y y y ....+.#...y ..y y +.",
"$.$.$.%.$.$.$.$.$.&.$.*.&.$.=.=.%.&.%.-.",
";.;.;.>.;.,.'.;.>.;.;.;.;.;.;.;.;.;.;.'.",
"C ).C C C ).!.C C C C C C ).~.C C C C C "};
