/* XPM */
static char * menu_prelight_xpm[] = {
"20 24 119 2",
"  	c None",
". 	c #939393",
"+ 	c #FFFFFF",
"@ 	c #E8E8E8",
"# 	c #E7E7E8",
"$ 	c #E7E7E7",
"% 	c #E8E8E7",
"& 	c #E8E7E7",
"* 	c #E6E6E6",
"= 	c #E6E7E6",
"- 	c #E7E6E6",
"; 	c #E6E6E7",
"> 	c #E5E5E5",
", 	c #E6E5E6",
"' 	c #E5E5E6",
") 	c #E5E6E5",
"! 	c #E6E5E5",
"~ 	c #E6E6E5",
"{ 	c #E4E4E4",
"] 	c #E5E4E4",
"^ 	c #E4E5E4",
"/ 	c #E4E4E5",
"( 	c #E4E3E3",
"_ 	c #E3E3E4",
": 	c #9A9A9A",
"< 	c #707070",
"[ 	c #565656",
"} 	c #5A5A5A",
"| 	c #E3E3E3",
"1 	c #E4E3E4",
"2 	c #E2E3E2",
"3 	c #858585",
"4 	c #717171",
"5 	c #BCBBBC",
"6 	c #E2E2E2",
"7 	c #BCBCBC",
"8 	c #9B9B9B",
"9 	c #D5D5D5",
"0 	c #DEDDDD",
"a 	c #727172",
"b 	c #787878",
"c 	c #ACACAC",
"d 	c #D1D1D1",
"e 	c #D3D3D3",
"f 	c #D0D1D0",
"g 	c #676767",
"h 	c #BEBDBE",
"i 	c #C3C4C3",
"j 	c #C0C0C0",
"k 	c #C4C3C4",
"l 	c #C4C3C3",
"m 	c #BDBDBD",
"n 	c #676666",
"o 	c #6A6B6B",
"p 	c #CACAC9",
"q 	c #C9C9C9",
"r 	c #C9CACA",
"s 	c #C4C4C3",
"t 	c #868686",
"u 	c #B4B4B4",
"v 	c #D7D7D6",
"w 	c #D9D9D9",
"x 	c #D6D6D7",
"y 	c #D7D7D7",
"z 	c #B5B4B4",
"A 	c #B2B2B2",
"B 	c #838384",
"C 	c #DCDCDB",
"D 	c #F2F2F2",
"E 	c #DCDBDC",
"F 	c #848383",
"G 	c #CACACA",
"H 	c #A3A3A4",
"I 	c #8A8A8A",
"J 	c #EAEAEA",
"K 	c #898A89",
"L 	c #DADBDB",
"M 	c #BBBBBB",
"N 	c #909090",
"O 	c #777777",
"P 	c #7A7A7B",
"Q 	c #767677",
"R 	c #777776",
"S 	c #777676",
"T 	c #777677",
"U 	c #7B7B7A",
"V 	c #DBDBDA",
"W 	c #DAD9DA",
"X 	c #DAD9D9",
"Y 	c #DEDEDE",
"Z 	c #E0E0E0",
"` 	c #D9D9DA",
" .	c #D9D8D9",
"..	c #D8D9D8",
"+.	c #D8D8D9",
"@.	c #D9D8D8",
"#.	c #D9D9D8",
"$.	c #D8D9D9",
"%.	c #D8D8D8",
"&.	c #D7D8D8",
"*.	c #D8D7D8",
"=.	c #D8D7D7",
"-.	c #D8D8D7",
";.	c #D7D8D7",
">.	c #D7D7D8",
",.	c #D6D7D6",
"'.	c #D7D6D6",
").	c #D7D6D7",
"!.	c #D6D7D7",
"~.	c #D6D6D6",
"{.	c #D6D6D5",
"].	c #D5D6D6",
"^.	c #D6D5D6",
"/.	c #D4D5D4",
"(.	c #D4D5D5",
"_.	c #D5D5D4",
":.	c #D5D4D5",
"<.	c #D4D4D4",
"[.	c #D4D4D3",
". . . . . . . . . . . . . . . . . . . . ",
"+ + + + + + + + + + + + + + + + + + + + ",
"@ @ @ @ @ @ @ @ @ @ @ @ @ @ @ @ @ @ @ @ ",
"# $ $ $ % & $ $ $ $ $ $ $ $ $ $ $ $ $ $ ",
"* * * = * * - - * * ; * * * ; = * - * ; ",
"> > , > ' > > ) > ' > > ! > > > > > > ~ ",
"{ ] { { { { ^ { ^ { ] { ] { / { { { { { ",
"( _ : < [ } [ [ [ [ [ [ [ [ [ } < : | 1 ",
"2 3 4 5 6 6 6 6 6 6 6 6 6 6 6 6 7 4 3 6 ",
"8 4 9 | | | | | | | | | | | | | 0 9 a 8 ",
"b c d e e e e e e e e e e e e e f d c b ",
"g h i j j j j j j j j j j j j j k l m n ",
"o l p q q q q q q q q q q q q q r p s o ",
"t u v w w w w w w w w w w w w w x y z t ",
"A B C D D D D D D D D D D D D D { E F A ",
"G H I q { { { { { { { { { { { J q K H G ",
"L d M N O P Q R S R T O T O R U N M d V ",
"W X G y Y Z Z Z Z Z Z Z Z Z Z Y y G W ` ",
" .w w w w ..+.@.#.w #.@.$.$.#...+. .w w ",
"%.&.&.*.&.=.*.%.-.;.%.*.%.%.&.>.&.%.%.%.",
"y y y y ,.y '.y y y ).!.).!.,.!.v y y y ",
"~.{.].~.~.~.~.~.~.~.~.^.~.~.~.~.].].^.~.",
"9 9 9 9 9 9 9 /.(.9 9 _.9 9 _.:.9 9 9 9 ",
"<.<.<.<.<.[.<.<.<.<.<.<.<.<.<.<.<.<.<.<."};
