/* XPM */
static char * right_active_xpm[] = {
"4 24 2 1",
" 	c #D2D2D2",
".	c #939393",
"   .",
"   .",
"   .",
"   .",
"   .",
"   .",
"   .",
"   .",
"   .",
"   .",
"   .",
"   .",
"   .",
"   .",
"   .",
"   .",
"   .",
"   .",
"   .",
"   .",
"   .",
"   .",
"   .",
"   ."};
