/* XPM */
static char * top_right_active_xpm[] = {
"4 24 27 1",
" 	c None",
".	c #939393",
"+	c #EEEEEE",
"@	c #DADADA",
"#	c #888888",
"$	c #E7E7E7",
"%	c #E8E8E8",
"&	c #DBDBDC",
"*	c #E6E6E7",
"=	c #E7E7E8",
"-	c #E5E5E5",
";	c #E3E3E3",
">	c #E2E2E2",
",	c #E1E1E1",
"'	c #E0E0E0",
")	c #DFDFDF",
"!	c #DEDFDE",
"~	c #DEDEDE",
"{	c #DCDDDC",
"]	c #DBDBDA",
"^	c #D9D9D9",
"/	c #D7D8D7",
"(	c #D6D6D6",
"_	c #D6D5D5",
":	c #D4D5D4",
"<	c #D4D3D3",
"[	c #D3D3D3",
"..  ",
"+@#.",
"$%&.",
"**=.",
"---.",
";;;.",
";;;.",
">>>.",
",,,.",
"'''.",
"))).",
"!!!.",
"~~~.",
"{{{.",
"&&&.",
"]]].",
"@@@.",
"^^^.",
"///.",
"(((.",
"___.",
":::.",
"<<<.",
"[[[."};
